<svg width="1440" height="420" viewBox="0 0 1440 420" fill="none" xmlns="http://www.w3.org/2000/svg" role="img" aria-labelledby="title desc">
  <title id="title">CaspianG profile banner</title>
  <desc id="desc">Minimal black and white banner for CaspianG, focused on dynamic memory systems.</desc>

  <rect width="1440" height="420" rx="32" fill="#FFFFFF"/>
  <rect x="1" y="1" width="1438" height="418" rx="31" stroke="#111111" stroke-opacity="0.14" stroke-width="2"/>

  <g opacity="0.045">
    <path d="M0 84H1440M0 168H1440M0 252H1440M0 336H1440" stroke="#111111"/>
    <path d="M120 0V420M240 0V420M360 0V420M480 0V420M600 0V420M720 0V420M840 0V420M960 0V420M1080 0V420M1200 0V420M1320 0V420" stroke="#111111"/>
  </g>

  <g transform="translate(80 72)">
    <rect width="92" height="92" rx="24" fill="#111111"/>
    <circle cx="46" cy="46" r="29" fill="#FFFFFF"/>
    <path d="M35 24C30 32 28 39 28 46C28 53 30 60 35 68" stroke="#111111" stroke-width="5" stroke-linecap="round"/>
    <path d="M57 24C62 32 64 39 64 46C64 53 62 60 57 68" stroke="#111111" stroke-width="5" stroke-linecap="round"/>
    <path d="M28 46H64" stroke="#111111" stroke-width="5" stroke-linecap="round"/>
  </g>

  <text x="80" y="238" fill="#111111" font-family="Inter, Segoe UI, Arial, sans-serif" font-size="82" font-weight="850" letter-spacing="0">CaspianG</text>
  <text x="84" y="288" fill="#111111" font-family="Inter, Segoe UI, Arial, sans-serif" font-size="28" font-weight="720" letter-spacing="0">dynamic memory systems</text>
  <text x="84" y="326" fill="#555555" font-family="Inter, Segoe UI, Arial, sans-serif" font-size="20" font-weight="520" letter-spacing="0">software that remembers, adapts, and forgets on purpose</text>

  <g transform="translate(735 72)">
    <rect x="0" y="0" width="612" height="276" rx="30" fill="#FFFFFF" stroke="#111111" stroke-opacity="0.18" stroke-width="2"/>

    <path d="M56 154C130 92 204 86 288 128C390 178 484 160 556 86" stroke="#111111" stroke-width="3.4" stroke-linecap="round"/>
    <path d="M56 202C130 140 204 134 288 176C390 226 484 208 556 134" stroke="#111111" stroke-opacity="0.28" stroke-width="2.4" stroke-linecap="round"/>

    <g transform="translate(52 46)">
      <rect width="142" height="52" rx="17" fill="#FFFFFF" stroke="#111111" stroke-width="2"/>
      <text x="71" y="33" text-anchor="middle" fill="#111111" font-family="Inter, Segoe UI, Arial, sans-serif" font-size="17" font-weight="780">remember</text>
    </g>

    <path d="M214 72H264" stroke="#111111" stroke-width="2.6" stroke-linecap="round"/>
    <path d="M254 62L268 72L254 82" stroke="#111111" stroke-width="2.6" stroke-linecap="round" stroke-linejoin="round"/>

    <g transform="translate(288 46)">
      <rect width="108" height="52" rx="17" fill="#111111"/>
      <text x="54" y="33" text-anchor="middle" fill="#FFFFFF" font-family="Inter, Segoe UI, Arial, sans-serif" font-size="17" font-weight="780">recall</text>
    </g>

    <path d="M416 72H466" stroke="#111111" stroke-width="2.6" stroke-linecap="round"/>
    <path d="M456 62L470 72L456 82" stroke="#111111" stroke-width="2.6" stroke-linecap="round" stroke-linejoin="round"/>

    <g transform="translate(490 46)">
      <rect width="88" height="52" rx="17" fill="#FFFFFF" stroke="#111111" stroke-width="2"/>
      <text x="44" y="33" text-anchor="middle" fill="#111111" font-family="Inter, Segoe UI, Arial, sans-serif" font-size="17" font-weight="780">adapt</text>
    </g>

    <g transform="translate(82 230)">
      <text x="0" y="0" fill="#555555" font-family="Inter, Segoe UI, Arial, sans-serif" font-size="16" font-weight="650">local-first</text>
      <circle cx="112" cy="-5" r="4" fill="#111111"/>
      <text x="132" y="0" fill="#555555" font-family="Inter, Segoe UI, Arial, sans-serif" font-size="16" font-weight="650">benchmarked</text>
      <circle cx="270" cy="-5" r="4" fill="#111111"/>
      <text x="290" y="0" fill="#555555" font-family="Inter, Segoe UI, Arial, sans-serif" font-size="16" font-weight="650">production-aware</text>
    </g>
  </g>
</svg>
