<svg width="1280" height="420" viewBox="0 0 1280 420" fill="none" xmlns="http://www.w3.org/2000/svg" role="img" aria-labelledby="title desc">
  <title id="title">CaspianG GitHub profile header</title>
  <desc id="desc">A minimal black and white banner about dynamic memory systems.</desc>

  <rect width="1280" height="420" rx="32" fill="#080A0D"/>
  <rect x="1" y="1" width="1278" height="418" rx="31" stroke="white" stroke-opacity="0.08" stroke-width="2"/>

  <g opacity="0.09">
    <path d="M0 84H1280" stroke="white"/>
    <path d="M0 168H1280" stroke="white"/>
    <path d="M0 252H1280" stroke="white"/>
    <path d="M0 336H1280" stroke="white"/>
    <path d="M160 0V420" stroke="white"/>
    <path d="M320 0V420" stroke="white"/>
    <path d="M480 0V420" stroke="white"/>
    <path d="M640 0V420" stroke="white"/>
    <path d="M800 0V420" stroke="white"/>
    <path d="M960 0V420" stroke="white"/>
    <path d="M1120 0V420" stroke="white"/>
  </g>

  <g opacity="0.22">
    <path d="M76 324C180 235 270 230 384 296C503 365 610 352 742 253C861 163 982 157 1100 235C1160 274 1210 286 1258 281" stroke="white" stroke-width="3"/>
    <path d="M76 276C180 187 270 182 384 248C503 317 610 304 742 205C861 115 982 109 1100 187C1160 226 1210 238 1258 233" stroke="white" stroke-width="2"/>
    <path d="M76 228C180 139 270 134 384 200C503 269 610 256 742 157C861 67 982 61 1100 139C1160 178 1210 190 1258 185" stroke="white" stroke-width="2"/>
  </g>

  <g transform="translate(78 72)">
    <rect width="118" height="118" rx="28" fill="white"/>
    <circle cx="59" cy="59" r="38" fill="#080A0D"/>
    <path d="M45 31C39 43 36 52 36 59C36 66 39 75 45 87" stroke="white" stroke-width="6" stroke-linecap="round"/>
    <path d="M73 31C79 43 82 52 82 59C82 66 79 75 73 87" stroke="white" stroke-width="6" stroke-linecap="round"/>
    <path d="M32 59H86" stroke="white" stroke-width="6" stroke-linecap="round"/>
  </g>

  <text x="78" y="255" fill="white" font-family="Inter, Segoe UI, Arial, sans-serif" font-size="76" font-weight="800" letter-spacing="0">CaspianG</text>
  <text x="82" y="304" fill="#D0D7DE" font-family="Inter, Segoe UI, Arial, sans-serif" font-size="28" font-weight="500" letter-spacing="0">Memory infrastructure for software that adapts</text>

  <g transform="translate(760 82)">
    <rect width="380" height="214" rx="26" fill="white" fill-opacity="0.06" stroke="white" stroke-opacity="0.14"/>
    <text x="28" y="45" fill="white" font-family="Inter, Segoe UI, Arial, sans-serif" font-size="20" font-weight="750" letter-spacing="0">Dynamic memory loop</text>
    <text x="28" y="76" fill="#AEB8C2" font-family="Inter, Segoe UI, Arial, sans-serif" font-size="15" font-weight="500" letter-spacing="0">remember -> retrieve -> reinforce -> decay</text>

    <g transform="translate(34 110)">
      <circle cx="20" cy="20" r="20" fill="white"/>
      <text x="20" y="26" fill="#080A0D" text-anchor="middle" font-family="Inter, Segoe UI, Arial, sans-serif" font-size="12" font-weight="800">R</text>
      <path d="M48 20H92" stroke="white" stroke-opacity="0.72" stroke-width="2.5" stroke-linecap="round"/>
      <path d="M86 13L94 20L86 27" stroke="white" stroke-opacity="0.72" stroke-width="2.5" stroke-linecap="round" stroke-linejoin="round"/>

      <circle cx="125" cy="20" r="20" fill="white" fill-opacity="0.18" stroke="white" stroke-opacity="0.38"/>
      <text x="125" y="26" fill="white" text-anchor="middle" font-family="Inter, Segoe UI, Arial, sans-serif" font-size="12" font-weight="800">Q</text>
      <path d="M153 20H197" stroke="white" stroke-opacity="0.72" stroke-width="2.5" stroke-linecap="round"/>
      <path d="M191 13L199 20L191 27" stroke="white" stroke-opacity="0.72" stroke-width="2.5" stroke-linecap="round" stroke-linejoin="round"/>

      <circle cx="230" cy="20" r="20" fill="white" fill-opacity="0.18" stroke="white" stroke-opacity="0.38"/>
      <text x="230" y="26" fill="white" text-anchor="middle" font-family="Inter, Segoe UI, Arial, sans-serif" font-size="12" font-weight="800">H</text>
      <path d="M258 20H302" stroke="white" stroke-opacity="0.72" stroke-width="2.5" stroke-linecap="round"/>
      <path d="M296 13L304 20L296 27" stroke="white" stroke-opacity="0.72" stroke-width="2.5" stroke-linecap="round" stroke-linejoin="round"/>

      <circle cx="335" cy="20" r="20" fill="white" fill-opacity="0.18" stroke="white" stroke-opacity="0.38"/>
      <text x="335" y="26" fill="white" text-anchor="middle" font-family="Inter, Segoe UI, Arial, sans-serif" font-size="12" font-weight="800">D</text>
    </g>

    <g transform="translate(28 174)">
      <rect width="86" height="28" rx="14" fill="white" fill-opacity="0.10"/>
      <text x="43" y="19" fill="white" text-anchor="middle" font-family="Inter, Segoe UI, Arial, sans-serif" font-size="12" font-weight="700">local-first</text>
      <rect x="98" width="92" height="28" rx="14" fill="white" fill-opacity="0.10"/>
      <text x="144" y="19" fill="white" text-anchor="middle" font-family="Inter, Segoe UI, Arial, sans-serif" font-size="12" font-weight="700">benchmarked</text>
      <rect x="202" width="92" height="28" rx="14" fill="white" fill-opacity="0.10"/>
      <text x="248" y="19" fill="white" text-anchor="middle" font-family="Inter, Segoe UI, Arial, sans-serif" font-size="12" font-weight="700">agent-ready</text>
    </g>
  </g>
</svg>
