<svg width="1440" height="520" viewBox="0 0 1440 520" fill="none" xmlns="http://www.w3.org/2000/svg" role="img" aria-labelledby="title desc">
  <title id="title">CaspianG profile banner</title>
  <desc id="desc">A minimal black and white banner about dynamic memory infrastructure.</desc>

  <rect width="1440" height="520" rx="34" fill="#070707"/>
  <rect x="1.5" y="1.5" width="1437" height="517" rx="32.5" stroke="#FFFFFF" stroke-opacity="0.16" stroke-width="3"/>

  <g opacity="0.07">
    <path d="M88 96H1352M88 190H1352M88 284H1352M88 378H1352" stroke="#FFFFFF"/>
    <path d="M208 54V466M348 54V466M488 54V466M628 54V466M768 54V466M908 54V466M1048 54V466M1188 54V466M1328 54V466" stroke="#FFFFFF"/>
  </g>

  <g transform="translate(82 68)">
    <rect width="70" height="70" rx="20" fill="#FFFFFF"/>
    <circle cx="35" cy="35" r="22" fill="#070707"/>
    <path d="M22 35H48" stroke="#FFFFFF" stroke-width="5" stroke-linecap="round"/>
    <path d="M26 25C18 34 19 45 28 53" stroke="#FFFFFF" stroke-width="5" stroke-linecap="round"/>
    <path d="M44 25C52 34 51 45 42 53" stroke="#FFFFFF" stroke-width="5" stroke-linecap="round"/>
  </g>

  <text x="82" y="176" fill="#FFFFFF" font-family="Inter, Segoe UI, Arial, sans-serif" font-size="17" font-weight="800" letter-spacing="4">CASPIANG</text>
  <text x="82" y="250" fill="#FFFFFF" font-family="Inter, Segoe UI, Arial, sans-serif" font-size="60" font-weight="850">Dynamic memory</text>
  <text x="82" y="318" fill="#FFFFFF" font-family="Inter, Segoe UI, Arial, sans-serif" font-size="60" font-weight="850">systems.</text>
  <text x="84" y="376" fill="#C9CAD1" font-family="Inter, Segoe UI, Arial, sans-serif" font-size="20" font-weight="520">software that remembers, adapts, and explains itself</text>

  <g transform="translate(82 424)" font-family="Inter, Segoe UI, Arial, sans-serif" font-size="13" font-weight="800">
    <rect width="136" height="38" rx="19" fill="#FFFFFF"/>
    <text x="68" y="25" text-anchor="middle" fill="#070707">WaveMind</text>

    <rect x="154" width="128" height="38" rx="19" fill="#070707" stroke="#FFFFFF" stroke-opacity="0.34" stroke-width="2"/>
    <text x="218" y="25" text-anchor="middle" fill="#FFFFFF">local-first</text>

    <rect x="300" width="128" height="38" rx="19" fill="#070707" stroke="#FFFFFF" stroke-opacity="0.34" stroke-width="2"/>
    <text x="364" y="25" text-anchor="middle" fill="#FFFFFF">benchmarked</text>

    <rect x="446" width="130" height="38" rx="19" fill="#070707" stroke="#FFFFFF" stroke-opacity="0.34" stroke-width="2"/>
    <text x="511" y="25" text-anchor="middle" fill="#FFFFFF">open source</text>
  </g>

  <g transform="translate(808 64)">
    <rect width="548" height="392" rx="32" fill="#101113" stroke="#FFFFFF" stroke-opacity="0.16" stroke-width="2"/>

    <g transform="translate(42 38)" font-family="Inter, Segoe UI, Arial, sans-serif">
      <text x="0" y="26" fill="#FFFFFF" font-size="23" font-weight="850">memory control loop</text>
      <text x="0" y="58" fill="#B9BBC3" font-size="14" font-weight="520">retrieve candidates, adapt priority, keep provenance</text>
    </g>

    <g transform="translate(54 124)">
      <path d="M36 166C90 92 152 80 220 116C284 150 322 214 440 56" stroke="#FFFFFF" stroke-width="4" stroke-linecap="round"/>
      <path d="M36 224C90 150 152 138 220 174C284 208 322 272 440 114" stroke="#FFFFFF" stroke-opacity="0.12" stroke-width="4" stroke-linecap="round"/>

      <path d="M36 166L142 86L220 116L318 182L440 56" stroke="#FFFFFF" stroke-opacity="0.18" stroke-width="2"/>
      <path d="M142 86L318 182M220 116L440 56M36 166L220 116" stroke="#FFFFFF" stroke-opacity="0.12" stroke-width="2"/>

      <circle cx="36" cy="166" r="12" fill="#FFFFFF"/>
      <circle cx="142" cy="86" r="24" fill="#FFFFFF"/>
      <circle cx="220" cy="116" r="38" fill="#FFFFFF"/>
      <circle cx="318" cy="182" r="18" fill="#FFFFFF"/>
      <circle cx="440" cy="56" r="28" fill="#FFFFFF"/>

      <circle cx="142" cy="86" r="52" stroke="#FFFFFF" stroke-opacity="0.10" stroke-width="2"/>
      <circle cx="220" cy="116" r="86" stroke="#FFFFFF" stroke-opacity="0.10" stroke-width="2"/>
      <circle cx="440" cy="56" r="62" stroke="#FFFFFF" stroke-opacity="0.10" stroke-width="2"/>
    </g>

    <g transform="translate(44 334)" font-family="Inter, Segoe UI, Arial, sans-serif" font-size="12" font-weight="800">
      <rect width="86" height="30" rx="15" fill="#FFFFFF"/>
      <text x="43" y="20" text-anchor="middle" fill="#070707">recall</text>

      <rect x="102" width="88" height="30" rx="15" fill="#101113" stroke="#FFFFFF" stroke-opacity="0.34" stroke-width="2"/>
      <text x="146" y="20" text-anchor="middle" fill="#FFFFFF">hotness</text>

      <rect x="206" width="84" height="30" rx="15" fill="#101113" stroke="#FFFFFF" stroke-opacity="0.34" stroke-width="2"/>
      <text x="248" y="20" text-anchor="middle" fill="#FFFFFF">decay</text>

      <rect x="306" width="108" height="30" rx="15" fill="#101113" stroke="#FFFFFF" stroke-opacity="0.34" stroke-width="2"/>
      <text x="360" y="20" text-anchor="middle" fill="#FFFFFF">feedback</text>

      <rect x="430" width="78" height="30" rx="15" fill="#101113" stroke="#FFFFFF" stroke-opacity="0.34" stroke-width="2"/>
      <text x="469" y="20" text-anchor="middle" fill="#FFFFFF">TTL</text>
    </g>
  </g>
</svg>
