<svg width="1440" height="520" viewBox="0 0 1440 520" fill="none" xmlns="http://www.w3.org/2000/svg" role="img" aria-labelledby="title desc">
  <title id="title">CaspianG profile banner</title>
  <desc id="desc">Minimal monochrome banner for CaspianG, focused on adaptive memory infrastructure.</desc>

  <rect width="1440" height="520" rx="34" fill="#0A0A0B"/>
  <rect x="1" y="1" width="1438" height="518" rx="33" stroke="#FFFFFF" stroke-opacity="0.10" stroke-width="2"/>

  <g opacity="0.07">
    <path d="M0 86H1440M0 172H1440M0 258H1440M0 344H1440M0 430H1440" stroke="#FFFFFF"/>
    <path d="M120 0V520M240 0V520M360 0V520M480 0V520M600 0V520M720 0V520M840 0V520M960 0V520M1080 0V520M1200 0V520M1320 0V520" stroke="#FFFFFF"/>
  </g>

  <g transform="translate(88 72)">
    <rect width="88" height="88" rx="24" fill="#FFFFFF"/>
    <circle cx="44" cy="44" r="27" fill="#0A0A0B"/>
    <path d="M30 25C25 32 23 38 23 44C23 50 25 57 30 64" stroke="#FFFFFF" stroke-width="5" stroke-linecap="round"/>
    <path d="M58 25C63 32 65 38 65 44C65 50 63 57 58 64" stroke="#FFFFFF" stroke-width="5" stroke-linecap="round"/>
    <path d="M26 44H62" stroke="#FFFFFF" stroke-width="5" stroke-linecap="round"/>
  </g>

  <text x="88" y="230" fill="#FFFFFF" font-family="Inter, Segoe UI, Arial, sans-serif" font-size="88" font-weight="850" letter-spacing="0">CaspianG</text>
  <text x="92" y="286" fill="#FFFFFF" font-family="Inter, Segoe UI, Arial, sans-serif" font-size="31" font-weight="780" letter-spacing="0">adaptive memory infrastructure</text>
  <text x="92" y="331" fill="#BDBDC2" font-family="Inter, Segoe UI, Arial, sans-serif" font-size="20" font-weight="520" letter-spacing="0">local-first systems that remember, rank, explain, and forget</text>

  <g transform="translate(92 380)">
    <rect width="116" height="40" rx="20" fill="#FFFFFF"/>
    <text x="58" y="25" text-anchor="middle" fill="#0A0A0B" font-family="Inter, Segoe UI, Arial, sans-serif" font-size="13" font-weight="820">WaveMind</text>

    <rect x="132" width="118" height="40" rx="20" fill="#0A0A0B" stroke="#FFFFFF" stroke-opacity="0.25" stroke-width="2"/>
    <text x="191" y="25" text-anchor="middle" fill="#FFFFFF" font-family="Inter, Segoe UI, Arial, sans-serif" font-size="13" font-weight="780">benchmarks</text>

    <rect x="266" width="112" height="40" rx="20" fill="#0A0A0B" stroke="#FFFFFF" stroke-opacity="0.25" stroke-width="2"/>
    <text x="322" y="25" text-anchor="middle" fill="#FFFFFF" font-family="Inter, Segoe UI, Arial, sans-serif" font-size="13" font-weight="780">local-first</text>

    <rect x="394" width="140" height="40" rx="20" fill="#0A0A0B" stroke="#FFFFFF" stroke-opacity="0.25" stroke-width="2"/>
    <text x="464" y="25" text-anchor="middle" fill="#FFFFFF" font-family="Inter, Segoe UI, Arial, sans-serif" font-size="13" font-weight="780">production path</text>
  </g>

  <g transform="translate(760 64)">
    <rect width="594" height="392" rx="32" fill="#111113" stroke="#FFFFFF" stroke-opacity="0.14" stroke-width="2"/>

    <g transform="translate(42 40)">
      <text x="0" y="0" fill="#FFFFFF" font-family="Inter, Segoe UI, Arial, sans-serif" font-size="22" font-weight="850">memory as a living system</text>
      <text x="0" y="33" fill="#BDBDC2" font-family="Inter, Segoe UI, Arial, sans-serif" font-size="14" font-weight="520">storage, retrieval, priority, feedback, decay</text>
    </g>

    <g transform="translate(54 106)">
      <path d="M10 184C78 98 150 96 218 160C286 224 354 224 424 148C474 94 502 78 530 88" stroke="#FFFFFF" stroke-width="4" stroke-linecap="round"/>
      <path d="M10 222C78 136 150 134 218 198C286 262 354 262 424 186C474 132 502 116 530 126" stroke="#FFFFFF" stroke-opacity="0.16" stroke-width="3" stroke-linecap="round"/>

      <path d="M10 184L104 114L218 160L318 226L424 148L530 88" stroke="#FFFFFF" stroke-opacity="0.16" stroke-width="2"/>
      <path d="M104 114L318 226M218 160L424 148M318 226L530 88" stroke="#FFFFFF" stroke-opacity="0.12" stroke-width="2"/>

      <circle cx="10" cy="184" r="12" fill="#FFFFFF"/>
      <circle cx="104" cy="114" r="15" fill="#FFFFFF"/>
      <circle cx="218" cy="160" r="23" fill="#FFFFFF"/>
      <circle cx="318" cy="226" r="13" fill="#FFFFFF"/>
      <circle cx="424" cy="148" r="18" fill="#FFFFFF"/>
      <circle cx="530" cy="88" r="14" fill="#FFFFFF"/>

      <circle cx="104" cy="114" r="44" stroke="#FFFFFF" stroke-opacity="0.08" stroke-width="2"/>
      <circle cx="218" cy="160" r="64" stroke="#FFFFFF" stroke-opacity="0.08" stroke-width="2"/>
      <circle cx="424" cy="148" r="54" stroke="#FFFFFF" stroke-opacity="0.08" stroke-width="2"/>
    </g>

    <g transform="translate(42 320)">
      <rect width="118" height="42" rx="15" fill="#FFFFFF"/>
      <text x="59" y="27" text-anchor="middle" fill="#0A0A0B" font-family="Inter, Segoe UI, Arial, sans-serif" font-size="13" font-weight="820">remember</text>

      <path d="M182 21H222" stroke="#FFFFFF" stroke-opacity="0.70" stroke-width="2.5" stroke-linecap="round"/>
      <path d="M210 10L225 21L210 32" stroke="#FFFFFF" stroke-opacity="0.70" stroke-width="2.5" stroke-linecap="round" stroke-linejoin="round"/>

      <rect x="258" width="94" height="42" rx="15" fill="#111113" stroke="#FFFFFF" stroke-opacity="0.30" stroke-width="2"/>
      <text x="305" y="27" text-anchor="middle" fill="#FFFFFF" font-family="Inter, Segoe UI, Arial, sans-serif" font-size="13" font-weight="820">recall</text>

      <path d="M378 21H418" stroke="#FFFFFF" stroke-opacity="0.70" stroke-width="2.5" stroke-linecap="round"/>
      <path d="M406 10L421 21L406 32" stroke="#FFFFFF" stroke-opacity="0.70" stroke-width="2.5" stroke-linecap="round" stroke-linejoin="round"/>

      <rect x="454" width="94" height="42" rx="15" fill="#111113" stroke="#FFFFFF" stroke-opacity="0.30" stroke-width="2"/>
      <text x="501" y="27" text-anchor="middle" fill="#FFFFFF" font-family="Inter, Segoe UI, Arial, sans-serif" font-size="13" font-weight="820">adapt</text>
    </g>
  </g>
</svg>
