<svg width="1440" height="520" viewBox="0 0 1440 520" fill="none" xmlns="http://www.w3.org/2000/svg" role="img" aria-labelledby="title desc">
  <title id="title">CaspianG profile banner</title>
  <desc id="desc">A black and white banner about dynamic memory systems.</desc>

  <rect width="1440" height="520" rx="34" fill="#070707"/>
  <rect x="1.5" y="1.5" width="1437" height="517" rx="32.5" stroke="#FFFFFF" stroke-opacity="0.15" stroke-width="3"/>

  <g opacity="0.06">
    <path d="M80 98H1360M80 188H1360M80 278H1360M80 368H1360" stroke="#FFFFFF"/>
    <path d="M180 54V466M332 54V466M484 54V466M636 54V466M788 54V466M940 54V466M1092 54V466M1244 54V466" stroke="#FFFFFF"/>
  </g>

  <g transform="translate(84 70)">
    <rect width="74" height="74" rx="22" fill="#FFFFFF"/>
    <circle cx="37" cy="37" r="23" fill="#070707"/>
    <path d="M24 37H50" stroke="#FFFFFF" stroke-width="5" stroke-linecap="round"/>
    <path d="M29 26C20 36 21 48 31 56" stroke="#FFFFFF" stroke-width="5" stroke-linecap="round"/>
    <path d="M45 26C54 36 53 48 43 56" stroke="#FFFFFF" stroke-width="5" stroke-linecap="round"/>
  </g>

  <text x="84" y="184" fill="#FFFFFF" font-family="Inter, Segoe UI, Arial, sans-serif" font-size="15" font-weight="850" letter-spacing="4">CASPIANG</text>
  <text x="84" y="258" fill="#FFFFFF" font-family="Inter, Segoe UI, Arial, sans-serif" font-size="61" font-weight="850">Memory systems</text>
  <text x="84" y="326" fill="#FFFFFF" font-family="Inter, Segoe UI, Arial, sans-serif" font-size="61" font-weight="850">for durable context.</text>
  <text x="87" y="382" fill="#C9CAD1" font-family="Inter, Segoe UI, Arial, sans-serif" font-size="20" font-weight="520">open-source infrastructure for adaptive recall, evidence, and long-running software</text>

  <g transform="translate(84 428)" font-family="Inter, Segoe UI, Arial, sans-serif" font-size="13" font-weight="850">
    <rect width="142" height="38" rx="19" fill="#FFFFFF"/>
    <text x="71" y="25" text-anchor="middle" fill="#070707">WaveMind</text>

    <rect x="158" width="128" height="38" rx="19" fill="#070707" stroke="#FFFFFF" stroke-opacity="0.34" stroke-width="2"/>
    <text x="222" y="25" text-anchor="middle" fill="#FFFFFF">local-first</text>

    <rect x="302" width="136" height="38" rx="19" fill="#070707" stroke="#FFFFFF" stroke-opacity="0.34" stroke-width="2"/>
    <text x="370" y="25" text-anchor="middle" fill="#FFFFFF">benchmarked</text>

    <rect x="454" width="136" height="38" rx="19" fill="#070707" stroke="#FFFFFF" stroke-opacity="0.34" stroke-width="2"/>
    <text x="522" y="25" text-anchor="middle" fill="#FFFFFF">inspectable</text>
  </g>

  <g transform="translate(842 64)">
    <rect width="514" height="392" rx="32" fill="#101113" stroke="#FFFFFF" stroke-opacity="0.16" stroke-width="2"/>

    <g transform="translate(38 38)" font-family="Inter, Segoe UI, Arial, sans-serif">
      <text x="0" y="26" fill="#FFFFFF" font-size="23" font-weight="850">adaptive recall loop</text>
      <text x="0" y="58" fill="#B9BBC3" font-size="14" font-weight="520">store facts, search candidates, update priority</text>
    </g>

    <g transform="translate(52 128)">
      <path d="M28 170C82 104 136 90 204 118C278 149 318 220 424 58" stroke="#FFFFFF" stroke-width="4" stroke-linecap="round"/>
      <path d="M28 224C82 158 136 144 204 172C278 203 318 274 424 112" stroke="#FFFFFF" stroke-opacity="0.12" stroke-width="4" stroke-linecap="round"/>

      <path d="M28 170L128 92L204 118L304 184L424 58" stroke="#FFFFFF" stroke-opacity="0.18" stroke-width="2"/>
      <path d="M128 92L304 184M204 118L424 58M28 170L204 118" stroke="#FFFFFF" stroke-opacity="0.12" stroke-width="2"/>

      <circle cx="28" cy="170" r="12" fill="#FFFFFF"/>
      <circle cx="128" cy="92" r="25" fill="#FFFFFF"/>
      <circle cx="204" cy="118" r="39" fill="#FFFFFF"/>
      <circle cx="304" cy="184" r="18" fill="#FFFFFF"/>
      <circle cx="424" cy="58" r="29" fill="#FFFFFF"/>

      <circle cx="128" cy="92" r="52" stroke="#FFFFFF" stroke-opacity="0.10" stroke-width="2"/>
      <circle cx="204" cy="118" r="86" stroke="#FFFFFF" stroke-opacity="0.10" stroke-width="2"/>
      <circle cx="424" cy="58" r="62" stroke="#FFFFFF" stroke-opacity="0.10" stroke-width="2"/>
    </g>

    <g transform="translate(36 336)" font-family="Inter, Segoe UI, Arial, sans-serif" font-size="12" font-weight="850">
      <rect width="84" height="30" rx="15" fill="#FFFFFF"/>
      <text x="42" y="20" text-anchor="middle" fill="#070707">recall</text>

      <rect x="98" width="88" height="30" rx="15" fill="#101113" stroke="#FFFFFF" stroke-opacity="0.34" stroke-width="2"/>
      <text x="142" y="20" text-anchor="middle" fill="#FFFFFF">hotness</text>

      <rect x="200" width="82" height="30" rx="15" fill="#101113" stroke="#FFFFFF" stroke-opacity="0.34" stroke-width="2"/>
      <text x="241" y="20" text-anchor="middle" fill="#FFFFFF">decay</text>

      <rect x="296" width="104" height="30" rx="15" fill="#101113" stroke="#FFFFFF" stroke-opacity="0.34" stroke-width="2"/>
      <text x="348" y="20" text-anchor="middle" fill="#FFFFFF">feedback</text>

      <rect x="414" width="60" height="30" rx="15" fill="#101113" stroke="#FFFFFF" stroke-opacity="0.34" stroke-width="2"/>
      <text x="444" y="20" text-anchor="middle" fill="#FFFFFF">TTL</text>
    </g>
  </g>
</svg>
