<svg width="1440" height="520" viewBox="0 0 1440 520" fill="none" xmlns="http://www.w3.org/2000/svg" role="img" aria-labelledby="title desc">
  <title id="title">CaspianG profile banner</title>
  <desc id="desc">A modern black and white banner about dynamic memory systems.</desc>

  <rect width="1440" height="520" rx="34" fill="#070707"/>
  <rect x="1" y="1" width="1438" height="518" rx="33" stroke="#FFFFFF" stroke-opacity="0.13" stroke-width="2"/>

  <g opacity="0.055">
    <path d="M0 86H1440M0 172H1440M0 258H1440M0 344H1440M0 430H1440" stroke="#FFFFFF"/>
    <path d="M120 0V520M240 0V520M360 0V520M480 0V520M600 0V520M720 0V520M840 0V520M960 0V520M1080 0V520M1200 0V520M1320 0V520" stroke="#FFFFFF"/>
  </g>

  <g transform="translate(82 64)">
    <rect width="92" height="92" rx="28" fill="#FFFFFF"/>
    <circle cx="46" cy="46" r="27" fill="#070707"/>
    <path d="M30 29C24 37 22 42 22 47C22 53 25 59 30 66" stroke="#FFFFFF" stroke-width="6" stroke-linecap="round"/>
    <path d="M62 29C68 37 70 42 70 47C70 53 67 59 62 66" stroke="#FFFFFF" stroke-width="6" stroke-linecap="round"/>
    <path d="M28 47H64" stroke="#FFFFFF" stroke-width="6" stroke-linecap="round"/>
  </g>

  <text x="84" y="206" fill="#FFFFFF" font-family="Inter, Segoe UI, Arial, sans-serif" font-size="22" font-weight="760">CASPIANG</text>
  <text x="84" y="278" fill="#FFFFFF" font-family="Inter, Segoe UI, Arial, sans-serif" font-size="62" font-weight="860">Dynamic memory</text>
  <text x="84" y="343" fill="#FFFFFF" font-family="Inter, Segoe UI, Arial, sans-serif" font-size="62" font-weight="860">for durable systems.</text>
  <text x="88" y="398" fill="#C9CBD1" font-family="Inter, Segoe UI, Arial, sans-serif" font-size="19" font-weight="520">durable state / adaptive retrieval / decay / feedback / evidence</text>

  <g transform="translate(88 442)">
    <rect width="128" height="38" rx="19" fill="#FFFFFF"/>
    <text x="64" y="25" text-anchor="middle" fill="#070707" font-family="Inter, Segoe UI, Arial, sans-serif" font-size="13" font-weight="820">WaveMind</text>

    <rect x="142" width="122" height="38" rx="19" fill="#070707" stroke="#FFFFFF" stroke-opacity="0.26" stroke-width="2"/>
    <text x="203" y="25" text-anchor="middle" fill="#FFFFFF" font-family="Inter, Segoe UI, Arial, sans-serif" font-size="13" font-weight="760">local-first</text>

    <rect x="278" width="130" height="38" rx="19" fill="#070707" stroke="#FFFFFF" stroke-opacity="0.26" stroke-width="2"/>
    <text x="343" y="25" text-anchor="middle" fill="#FFFFFF" font-family="Inter, Segoe UI, Arial, sans-serif" font-size="13" font-weight="760">benchmarked</text>

    <rect x="422" width="128" height="38" rx="19" fill="#070707" stroke="#FFFFFF" stroke-opacity="0.26" stroke-width="2"/>
    <text x="486" y="25" text-anchor="middle" fill="#FFFFFF" font-family="Inter, Segoe UI, Arial, sans-serif" font-size="13" font-weight="760">open-source</text>
  </g>

  <g transform="translate(816 54)">
    <rect width="540" height="414" rx="34" fill="#101113" stroke="#FFFFFF" stroke-opacity="0.16" stroke-width="2"/>

    <g transform="translate(42 38)">
      <text x="0" y="0" fill="#FFFFFF" font-family="Inter, Segoe UI, Arial, sans-serif" font-size="24" font-weight="850">memory control plane</text>
      <text x="0" y="35" fill="#B7BAC2" font-family="Inter, Segoe UI, Arial, sans-serif" font-size="14" font-weight="520">turn stored context into evolving, explainable state</text>
    </g>

    <g transform="translate(42 104)">
      <rect width="456" height="54" rx="18" fill="#FFFFFF"/>
      <text x="24" y="34" fill="#070707" font-family="Inter, Segoe UI, Arial, sans-serif" font-size="15" font-weight="820">remember</text>
      <text x="186" y="34" fill="#070707" font-family="Inter, Segoe UI, Arial, sans-serif" font-size="15" font-weight="820">retrieve</text>
      <text x="330" y="34" fill="#070707" font-family="Inter, Segoe UI, Arial, sans-serif" font-size="15" font-weight="820">adapt</text>
    </g>

    <g transform="translate(66 202)">
      <path d="M0 118C48 46 110 40 168 78C229 118 273 178 360 52" stroke="#FFFFFF" stroke-width="4" stroke-linecap="round"/>
      <path d="M0 160C48 88 110 82 168 120C229 160 273 220 360 94" stroke="#FFFFFF" stroke-opacity="0.16" stroke-width="3" stroke-linecap="round"/>

      <path d="M0 118L102 58L168 78L254 154L360 52" stroke="#FFFFFF" stroke-opacity="0.18" stroke-width="2"/>
      <path d="M102 58L254 154M168 78L360 52M0 118L168 78" stroke="#FFFFFF" stroke-opacity="0.12" stroke-width="2"/>

      <circle cx="0" cy="118" r="11" fill="#FFFFFF"/>
      <circle cx="102" cy="58" r="19" fill="#FFFFFF"/>
      <circle cx="168" cy="78" r="31" fill="#FFFFFF"/>
      <circle cx="254" cy="154" r="15" fill="#FFFFFF"/>
      <circle cx="360" cy="52" r="23" fill="#FFFFFF"/>

      <circle cx="102" cy="58" r="44" stroke="#FFFFFF" stroke-opacity="0.10" stroke-width="2"/>
      <circle cx="168" cy="78" r="72" stroke="#FFFFFF" stroke-opacity="0.10" stroke-width="2"/>
      <circle cx="360" cy="52" r="58" stroke="#FFFFFF" stroke-opacity="0.10" stroke-width="2"/>
    </g>

    <g transform="translate(82 386)" font-family="Inter, Segoe UI, Arial, sans-serif" font-size="12" font-weight="760">
      <rect width="78" height="30" rx="15" fill="#FFFFFF"/>
      <text x="39" y="20" text-anchor="middle" fill="#070707">hot</text>
      <rect x="94" width="92" height="30" rx="15" fill="#101113" stroke="#FFFFFF" stroke-opacity="0.30" stroke-width="2"/>
      <text x="140" y="20" text-anchor="middle" fill="#FFFFFF">decay</text>
      <rect x="202" width="106" height="30" rx="15" fill="#101113" stroke="#FFFFFF" stroke-opacity="0.30" stroke-width="2"/>
      <text x="255" y="20" text-anchor="middle" fill="#FFFFFF">evidence</text>
      <rect x="324" width="96" height="30" rx="15" fill="#101113" stroke="#FFFFFF" stroke-opacity="0.30" stroke-width="2"/>
      <text x="372" y="20" text-anchor="middle" fill="#FFFFFF">forget</text>
    </g>
  </g>
</svg>
