<svg width="1440" height="430" viewBox="0 0 1440 430" fill="none" xmlns="http://www.w3.org/2000/svg" role="img" aria-labelledby="title desc">
  <title id="title">CaspianG profile banner</title>
  <desc id="desc">Minimal black and white banner for CaspianG, focused on adaptive memory systems.</desc>

  <rect width="1440" height="430" rx="34" fill="#FFFFFF"/>
  <rect x="1" y="1" width="1438" height="428" rx="33" stroke="#111111" stroke-opacity="0.14" stroke-width="2"/>

  <g opacity="0.045">
    <path d="M0 86H1440M0 172H1440M0 258H1440M0 344H1440" stroke="#111111"/>
    <path d="M120 0V430M240 0V430M360 0V430M480 0V430M600 0V430M720 0V430M840 0V430M960 0V430M1080 0V430M1200 0V430M1320 0V430" stroke="#111111"/>
  </g>

  <g transform="translate(78 70)">
    <rect width="94" height="94" rx="25" fill="#111111"/>
    <circle cx="47" cy="47" r="31" fill="#FFFFFF"/>
    <path d="M35 25C30 33 28 40 28 47C28 54 30 61 35 69" stroke="#111111" stroke-width="5" stroke-linecap="round"/>
    <path d="M59 25C64 33 66 40 66 47C66 54 64 61 59 69" stroke="#111111" stroke-width="5" stroke-linecap="round"/>
    <path d="M28 47H66" stroke="#111111" stroke-width="5" stroke-linecap="round"/>
  </g>

  <text x="78" y="236" fill="#111111" font-family="Inter, Segoe UI, Arial, sans-serif" font-size="82" font-weight="850" letter-spacing="0">CaspianG</text>
  <text x="82" y="286" fill="#111111" font-family="Inter, Segoe UI, Arial, sans-serif" font-size="28" font-weight="760" letter-spacing="0">adaptive memory infrastructure</text>
  <text x="82" y="326" fill="#555555" font-family="Inter, Segoe UI, Arial, sans-serif" font-size="20" font-weight="520" letter-spacing="0">remembers what matters, adapts with use, forgets cleanly</text>

  <g transform="translate(82 356)">
    <rect width="118" height="34" rx="17" fill="#111111"/>
    <text x="59" y="22" text-anchor="middle" fill="#FFFFFF" font-family="Inter, Segoe UI, Arial, sans-serif" font-size="13" font-weight="760">local-first</text>

    <rect x="132" width="138" height="34" rx="17" fill="#FFFFFF" stroke="#111111" stroke-opacity="0.22" stroke-width="2"/>
    <text x="201" y="22" text-anchor="middle" fill="#111111" font-family="Inter, Segoe UI, Arial, sans-serif" font-size="13" font-weight="760">benchmarked</text>

    <rect x="284" width="166" height="34" rx="17" fill="#FFFFFF" stroke="#111111" stroke-opacity="0.22" stroke-width="2"/>
    <text x="367" y="22" text-anchor="middle" fill="#111111" font-family="Inter, Segoe UI, Arial, sans-serif" font-size="13" font-weight="760">production-aware</text>
  </g>

  <g transform="translate(760 62)">
    <rect width="586" height="306" rx="32" fill="#FFFFFF" stroke="#111111" stroke-opacity="0.16" stroke-width="2"/>

    <g transform="translate(54 46)">
      <text x="0" y="0" fill="#111111" font-family="Inter, Segoe UI, Arial, sans-serif" font-size="20" font-weight="840">memory field</text>
      <text x="0" y="30" fill="#666666" font-family="Inter, Segoe UI, Arial, sans-serif" font-size="14" font-weight="520">retrieve, reinforce, decay, consolidate</text>
    </g>

    <g transform="translate(62 108)">
      <path d="M36 88C92 42 154 42 210 88C266 134 328 134 384 88C422 58 458 48 502 58" stroke="#111111" stroke-width="3.4" stroke-linecap="round"/>
      <path d="M36 126C92 80 154 80 210 126C266 172 328 172 384 126C422 96 458 86 502 96" stroke="#111111" stroke-opacity="0.25" stroke-width="2.4" stroke-linecap="round"/>

      <circle cx="36" cy="88" r="13" fill="#111111"/>
      <circle cx="120" cy="62" r="9" fill="#111111"/>
      <circle cx="210" cy="88" r="15" fill="#111111"/>
      <circle cx="300" cy="122" r="9" fill="#111111"/>
      <circle cx="384" cy="88" r="13" fill="#111111"/>
      <circle cx="502" cy="58" r="10" fill="#111111"/>

      <path d="M36 88L120 62L210 88L300 122L384 88L502 58" stroke="#111111" stroke-opacity="0.18" stroke-width="2"/>
    </g>

    <g transform="translate(46 248)">
      <rect width="128" height="42" rx="15" fill="#111111"/>
      <text x="64" y="27" text-anchor="middle" fill="#FFFFFF" font-family="Inter, Segoe UI, Arial, sans-serif" font-size="14" font-weight="800">remember</text>

      <path d="M196 21H238" stroke="#111111" stroke-width="2.6" stroke-linecap="round"/>
      <path d="M226 10L240 21L226 32" stroke="#111111" stroke-width="2.6" stroke-linecap="round" stroke-linejoin="round"/>

      <rect x="268" width="96" height="42" rx="15" fill="#FFFFFF" stroke="#111111" stroke-width="2"/>
      <text x="316" y="27" text-anchor="middle" fill="#111111" font-family="Inter, Segoe UI, Arial, sans-serif" font-size="14" font-weight="800">recall</text>

      <path d="M392 21H434" stroke="#111111" stroke-width="2.6" stroke-linecap="round"/>
      <path d="M422 10L436 21L422 32" stroke="#111111" stroke-width="2.6" stroke-linecap="round" stroke-linejoin="round"/>

      <rect x="464" width="78" height="42" rx="15" fill="#FFFFFF" stroke="#111111" stroke-width="2"/>
      <text x="503" y="27" text-anchor="middle" fill="#111111" font-family="Inter, Segoe UI, Arial, sans-serif" font-size="14" font-weight="800">adapt</text>
    </g>
  </g>
</svg>
