<svg width="1440" height="540" viewBox="0 0 1440 540" fill="none" xmlns="http://www.w3.org/2000/svg" role="img" aria-labelledby="title desc">
  <title id="title">CaspianG profile banner</title>
  <desc id="desc">A minimal black and white banner about memory infrastructure for long-running software.</desc>

  <rect width="1440" height="540" rx="36" fill="#070707"/>
  <rect x="1.5" y="1.5" width="1437" height="537" rx="34.5" stroke="#FFFFFF" stroke-opacity="0.18" stroke-width="3"/>

  <g opacity="0.08">
    <path d="M80 90H1360M80 180H1360M80 270H1360M80 360H1360M80 450H1360" stroke="#FFFFFF"/>
    <path d="M180 40V500M320 40V500M460 40V500M600 40V500M740 40V500M880 40V500M1020 40V500M1160 40V500M1300 40V500" stroke="#FFFFFF"/>
  </g>

  <g transform="translate(78 62)">
    <rect width="76" height="76" rx="22" fill="#FFFFFF"/>
    <circle cx="38" cy="38" r="22" fill="#070707"/>
    <path d="M24 27C18 35 18 43 25 52" stroke="#FFFFFF" stroke-width="5" stroke-linecap="round"/>
    <path d="M52 27C58 35 58 43 51 52" stroke="#FFFFFF" stroke-width="5" stroke-linecap="round"/>
    <path d="M25 38H51" stroke="#FFFFFF" stroke-width="5" stroke-linecap="round"/>
  </g>

  <text x="78" y="178" fill="#FFFFFF" font-family="Inter, Segoe UI, Arial, sans-serif" font-size="18" font-weight="800" letter-spacing="4">CASPIANG</text>
  <text x="78" y="258" fill="#FFFFFF" font-family="Inter, Segoe UI, Arial, sans-serif" font-size="58" font-weight="850">Memory infrastructure</text>
  <text x="78" y="326" fill="#FFFFFF" font-family="Inter, Segoe UI, Arial, sans-serif" font-size="58" font-weight="850">for software that lasts.</text>
  <text x="82" y="394" fill="#C9CAD1" font-family="Inter, Segoe UI, Arial, sans-serif" font-size="20" font-weight="520">dynamic recall / durable context / benchmarks / production systems</text>

  <g transform="translate(78 448)" font-family="Inter, Segoe UI, Arial, sans-serif" font-size="13" font-weight="800">
    <rect width="132" height="38" rx="19" fill="#FFFFFF"/>
    <text x="66" y="25" text-anchor="middle" fill="#070707">WaveMind</text>

    <rect x="150" width="132" height="38" rx="19" fill="#070707" stroke="#FFFFFF" stroke-opacity="0.34" stroke-width="2"/>
    <text x="216" y="25" text-anchor="middle" fill="#FFFFFF">local-first</text>

    <rect x="300" width="116" height="38" rx="19" fill="#070707" stroke="#FFFFFF" stroke-opacity="0.34" stroke-width="2"/>
    <text x="358" y="25" text-anchor="middle" fill="#FFFFFF">graphs</text>

    <rect x="434" width="156" height="38" rx="19" fill="#070707" stroke="#FFFFFF" stroke-opacity="0.34" stroke-width="2"/>
    <text x="512" y="25" text-anchor="middle" fill="#FFFFFF">open source</text>
  </g>

  <g transform="translate(850 74)">
    <rect width="512" height="392" rx="34" fill="#101113" stroke="#FFFFFF" stroke-opacity="0.18" stroke-width="2"/>

    <g transform="translate(42 40)" font-family="Inter, Segoe UI, Arial, sans-serif">
      <text x="0" y="26" fill="#FFFFFF" font-size="24" font-weight="850">adaptive memory loop</text>
      <text x="0" y="58" fill="#B9BBC3" font-size="14" font-weight="520">store facts, retrieve candidates, update importance, keep evidence</text>
    </g>

    <g transform="translate(38 136)">
      <path d="M52 132C100 70 154 54 218 90C282 126 310 180 408 58" stroke="#FFFFFF" stroke-width="4" stroke-linecap="round"/>
      <path d="M52 184C100 122 154 106 218 142C282 178 310 232 408 110" stroke="#FFFFFF" stroke-opacity="0.16" stroke-width="3" stroke-linecap="round"/>
      <path d="M52 132L154 70L218 90L304 158L408 58" stroke="#FFFFFF" stroke-opacity="0.18" stroke-width="2"/>
      <path d="M154 70L304 158M218 90L408 58M52 132L218 90" stroke="#FFFFFF" stroke-opacity="0.13" stroke-width="2"/>

      <circle cx="52" cy="132" r="12" fill="#FFFFFF"/>
      <circle cx="154" cy="70" r="20" fill="#FFFFFF"/>
      <circle cx="218" cy="90" r="34" fill="#FFFFFF"/>
      <circle cx="304" cy="158" r="16" fill="#FFFFFF"/>
      <circle cx="408" cy="58" r="26" fill="#FFFFFF"/>

      <circle cx="154" cy="70" r="46" stroke="#FFFFFF" stroke-opacity="0.11" stroke-width="2"/>
      <circle cx="218" cy="90" r="76" stroke="#FFFFFF" stroke-opacity="0.11" stroke-width="2"/>
      <circle cx="408" cy="58" r="58" stroke="#FFFFFF" stroke-opacity="0.11" stroke-width="2"/>
    </g>

    <g transform="translate(50 334)" font-family="Inter, Segoe UI, Arial, sans-serif" font-size="12" font-weight="800">
      <rect width="88" height="30" rx="15" fill="#FFFFFF"/>
      <text x="44" y="20" text-anchor="middle" fill="#070707">hotness</text>

      <rect x="104" width="82" height="30" rx="15" fill="#101113" stroke="#FFFFFF" stroke-opacity="0.34" stroke-width="2"/>
      <text x="145" y="20" text-anchor="middle" fill="#FFFFFF">decay</text>

      <rect x="202" width="102" height="30" rx="15" fill="#101113" stroke="#FFFFFF" stroke-opacity="0.34" stroke-width="2"/>
      <text x="253" y="20" text-anchor="middle" fill="#FFFFFF">feedback</text>

      <rect x="320" width="120" height="30" rx="15" fill="#101113" stroke="#FFFFFF" stroke-opacity="0.34" stroke-width="2"/>
      <text x="380" y="20" text-anchor="middle" fill="#FFFFFF">provenance</text>
    </g>
  </g>
</svg>
