<svg width="1440" height="520" viewBox="0 0 1440 520" fill="none" xmlns="http://www.w3.org/2000/svg" role="img" aria-labelledby="title desc">
  <title id="title">CaspianG profile banner</title>
  <desc id="desc">A modern dark banner for CaspianG focused on adaptive memory systems.</desc>

  <rect width="1440" height="520" rx="34" fill="#08090A"/>
  <rect x="1" y="1" width="1438" height="518" rx="33" stroke="#FFFFFF" stroke-opacity="0.12" stroke-width="2"/>

  <g opacity="0.08">
    <path d="M0 104H1440M0 208H1440M0 312H1440M0 416H1440" stroke="#FFFFFF"/>
    <path d="M144 0V520M288 0V520M432 0V520M576 0V520M720 0V520M864 0V520M1008 0V520M1152 0V520M1296 0V520" stroke="#FFFFFF"/>
  </g>

  <g transform="translate(86 68)">
    <rect width="82" height="82" rx="24" fill="#FFFFFF"/>
    <circle cx="41" cy="41" r="24" fill="#08090A"/>
    <path d="M27 24C22 31 20 36 20 41C20 47 22 52 27 59" stroke="#FFFFFF" stroke-width="5" stroke-linecap="round"/>
    <path d="M55 24C60 31 62 36 62 41C62 47 60 52 55 59" stroke="#FFFFFF" stroke-width="5" stroke-linecap="round"/>
    <path d="M24 41H58" stroke="#FFFFFF" stroke-width="5" stroke-linecap="round"/>
  </g>

  <text x="88" y="211" fill="#FFFFFF" font-family="Inter, Segoe UI, Arial, sans-serif" font-size="26" font-weight="760" letter-spacing="4">CASPIANG</text>
  <text x="88" y="286" fill="#FFFFFF" font-family="Inter, Segoe UI, Arial, sans-serif" font-size="66" font-weight="860" letter-spacing="0">Adaptive memory</text>
  <text x="88" y="354" fill="#FFFFFF" font-family="Inter, Segoe UI, Arial, sans-serif" font-size="66" font-weight="860" letter-spacing="0">for software that runs long.</text>
  <text x="92" y="405" fill="#C6C8CC" font-family="Inter, Segoe UI, Arial, sans-serif" font-size="21" font-weight="520" letter-spacing="0">local-first systems that remember signal, rank context, explain recall, and forget noise</text>

  <g transform="translate(92 442)">
    <rect width="124" height="38" rx="19" fill="#FFFFFF"/>
    <text x="62" y="24" text-anchor="middle" fill="#08090A" font-family="Inter, Segoe UI, Arial, sans-serif" font-size="13" font-weight="820">WaveMind</text>

    <rect x="140" width="118" height="38" rx="19" fill="#08090A" stroke="#FFFFFF" stroke-opacity="0.28" stroke-width="2"/>
    <text x="199" y="24" text-anchor="middle" fill="#FFFFFF" font-family="Inter, Segoe UI, Arial, sans-serif" font-size="13" font-weight="760">benchmarks</text>

    <rect x="274" width="112" height="38" rx="19" fill="#08090A" stroke="#FFFFFF" stroke-opacity="0.28" stroke-width="2"/>
    <text x="330" y="24" text-anchor="middle" fill="#FFFFFF" font-family="Inter, Segoe UI, Arial, sans-serif" font-size="13" font-weight="760">local-first</text>

    <rect x="402" width="126" height="38" rx="19" fill="#08090A" stroke="#FFFFFF" stroke-opacity="0.28" stroke-width="2"/>
    <text x="465" y="24" text-anchor="middle" fill="#FFFFFF" font-family="Inter, Segoe UI, Arial, sans-serif" font-size="13" font-weight="760">open-source</text>
  </g>

  <g transform="translate(830 58)">
    <rect width="514" height="404" rx="32" fill="#101113" stroke="#FFFFFF" stroke-opacity="0.15" stroke-width="2"/>

    <g transform="translate(42 40)">
      <text x="0" y="0" fill="#FFFFFF" font-family="Inter, Segoe UI, Arial, sans-serif" font-size="22" font-weight="850">memory signal graph</text>
      <text x="0" y="34" fill="#B9BCC2" font-family="Inter, Segoe UI, Arial, sans-serif" font-size="14" font-weight="520">retrieval, priority, decay, feedback, provenance</text>
    </g>

    <g transform="translate(46 112)">
      <path d="M22 196C64 110 132 78 204 134C274 188 320 234 424 94" stroke="#FFFFFF" stroke-width="4" stroke-linecap="round"/>
      <path d="M22 238C64 152 132 120 204 176C274 230 320 276 424 136" stroke="#FFFFFF" stroke-opacity="0.18" stroke-width="3" stroke-linecap="round"/>

      <path d="M22 196L124 112L204 134L302 226L424 94" stroke="#FFFFFF" stroke-opacity="0.16" stroke-width="2"/>
      <path d="M124 112L302 226M204 134L424 94M22 196L204 134" stroke="#FFFFFF" stroke-opacity="0.13" stroke-width="2"/>

      <circle cx="22" cy="196" r="11" fill="#FFFFFF"/>
      <circle cx="124" cy="112" r="18" fill="#FFFFFF"/>
      <circle cx="204" cy="134" r="28" fill="#FFFFFF"/>
      <circle cx="302" cy="226" r="14" fill="#FFFFFF"/>
      <circle cx="424" cy="94" r="22" fill="#FFFFFF"/>

      <circle cx="124" cy="112" r="44" stroke="#FFFFFF" stroke-opacity="0.10" stroke-width="2"/>
      <circle cx="204" cy="134" r="72" stroke="#FFFFFF" stroke-opacity="0.10" stroke-width="2"/>
      <circle cx="424" cy="94" r="58" stroke="#FFFFFF" stroke-opacity="0.10" stroke-width="2"/>

      <g font-family="Inter, Segoe UI, Arial, sans-serif" font-size="12" font-weight="760">
        <rect x="58" y="256" width="76" height="30" rx="15" fill="#FFFFFF"/>
        <text x="96" y="276" text-anchor="middle" fill="#08090A">hot</text>
        <rect x="150" y="256" width="82" height="30" rx="15" fill="#101113" stroke="#FFFFFF" stroke-opacity="0.30" stroke-width="2"/>
        <text x="191" y="276" text-anchor="middle" fill="#FFFFFF">decay</text>
        <rect x="248" y="256" width="100" height="30" rx="15" fill="#101113" stroke="#FFFFFF" stroke-opacity="0.30" stroke-width="2"/>
        <text x="298" y="276" text-anchor="middle" fill="#FFFFFF">evidence</text>
      </g>
    </g>
  </g>
</svg>
