<svg width="1440" height="440" viewBox="0 0 1440 440" fill="none" xmlns="http://www.w3.org/2000/svg" role="img" aria-labelledby="title desc">
  <title id="title">CaspianG profile banner</title>
  <desc id="desc">Minimal black and white banner for dynamic memory infrastructure.</desc>

  <rect width="1440" height="440" rx="34" fill="#07090D"/>
  <rect x="1" y="1" width="1438" height="438" rx="33" stroke="#FFFFFF" stroke-opacity="0.10" stroke-width="2"/>

  <g opacity="0.08">
    <path d="M120 0V440M240 0V440M360 0V440M480 0V440M600 0V440M720 0V440M840 0V440M960 0V440M1080 0V440M1200 0V440M1320 0V440" stroke="#FFFFFF"/>
    <path d="M0 88H1440M0 176H1440M0 264H1440M0 352H1440" stroke="#FFFFFF"/>
  </g>

  <g opacity="0.20">
    <path d="M70 316C190 226 300 226 430 292C565 360 690 344 835 242C970 148 1115 136 1250 218C1318 260 1370 270 1430 262" stroke="#FFFFFF" stroke-width="3"/>
    <path d="M70 268C190 178 300 178 430 244C565 312 690 296 835 194C970 100 1115 88 1250 170C1318 212 1370 222 1430 214" stroke="#FFFFFF" stroke-width="2"/>
    <path d="M70 220C190 130 300 130 430 196C565 264 690 248 835 146C970 52 1115 40 1250 122C1318 164 1370 174 1430 166" stroke="#FFFFFF" stroke-width="2"/>
  </g>

  <g transform="translate(88 70)">
    <rect width="122" height="122" rx="30" fill="#FFFFFF"/>
    <circle cx="61" cy="61" r="40" fill="#07090D"/>
    <path d="M47 34C41 46 38 55 38 62C38 69 41 78 47 90" stroke="#FFFFFF" stroke-width="6" stroke-linecap="round"/>
    <path d="M75 34C81 46 84 55 84 62C84 69 81 78 75 90" stroke="#FFFFFF" stroke-width="6" stroke-linecap="round"/>
    <path d="M35 62H87" stroke="#FFFFFF" stroke-width="6" stroke-linecap="round"/>
  </g>

  <text x="88" y="270" fill="#FFFFFF" font-family="Inter, Segoe UI, Arial, sans-serif" font-size="84" font-weight="800" letter-spacing="0">CaspianG</text>
  <text x="92" y="322" fill="#D0D7DE" font-family="Inter, Segoe UI, Arial, sans-serif" font-size="29" font-weight="520" letter-spacing="0">Dynamic memory systems for software that adapts</text>

  <g transform="translate(880 88)">
    <rect width="430" height="230" rx="28" fill="#FFFFFF" fill-opacity="0.06" stroke="#FFFFFF" stroke-opacity="0.15"/>
    <text x="32" y="50" fill="#FFFFFF" font-family="Inter, Segoe UI, Arial, sans-serif" font-size="22" font-weight="760" letter-spacing="0">WaveMind loop</text>
    <text x="32" y="82" fill="#AEB8C2" font-family="Inter, Segoe UI, Arial, sans-serif" font-size="16" font-weight="500" letter-spacing="0">remember -> recall -> reinforce -> decay</text>

    <g transform="translate(38 122)">
      <circle cx="22" cy="22" r="22" fill="#FFFFFF"/>
      <text x="22" y="29" fill="#07090D" text-anchor="middle" font-family="Inter, Segoe UI, Arial, sans-serif" font-size="13" font-weight="800">M</text>
      <path d="M53 22H100" stroke="#FFFFFF" stroke-opacity="0.74" stroke-width="2.6" stroke-linecap="round"/>
      <path d="M94 14L103 22L94 30" stroke="#FFFFFF" stroke-opacity="0.74" stroke-width="2.6" stroke-linecap="round" stroke-linejoin="round"/>

      <circle cx="137" cy="22" r="22" fill="#FFFFFF" fill-opacity="0.16" stroke="#FFFFFF" stroke-opacity="0.42"/>
      <text x="137" y="29" fill="#FFFFFF" text-anchor="middle" font-family="Inter, Segoe UI, Arial, sans-serif" font-size="13" font-weight="800">Q</text>
      <path d="M168 22H215" stroke="#FFFFFF" stroke-opacity="0.74" stroke-width="2.6" stroke-linecap="round"/>
      <path d="M209 14L218 22L209 30" stroke="#FFFFFF" stroke-opacity="0.74" stroke-width="2.6" stroke-linecap="round" stroke-linejoin="round"/>

      <circle cx="252" cy="22" r="22" fill="#FFFFFF" fill-opacity="0.16" stroke="#FFFFFF" stroke-opacity="0.42"/>
      <text x="252" y="29" fill="#FFFFFF" text-anchor="middle" font-family="Inter, Segoe UI, Arial, sans-serif" font-size="13" font-weight="800">H</text>
      <path d="M283 22H330" stroke="#FFFFFF" stroke-opacity="0.74" stroke-width="2.6" stroke-linecap="round"/>
      <path d="M324 14L333 22L324 30" stroke="#FFFFFF" stroke-opacity="0.74" stroke-width="2.6" stroke-linecap="round" stroke-linejoin="round"/>

      <circle cx="367" cy="22" r="22" fill="#FFFFFF" fill-opacity="0.16" stroke="#FFFFFF" stroke-opacity="0.42"/>
      <text x="367" y="29" fill="#FFFFFF" text-anchor="middle" font-family="Inter, Segoe UI, Arial, sans-serif" font-size="13" font-weight="800">D</text>
    </g>

    <g transform="translate(32 190)">
      <rect width="92" height="30" rx="15" fill="#FFFFFF" fill-opacity="0.10"/>
      <text x="46" y="20" fill="#FFFFFF" text-anchor="middle" font-family="Inter, Segoe UI, Arial, sans-serif" font-size="12" font-weight="720">local-first</text>
      <rect x="106" width="104" height="30" rx="15" fill="#FFFFFF" fill-opacity="0.10"/>
      <text x="158" y="20" fill="#FFFFFF" text-anchor="middle" font-family="Inter, Segoe UI, Arial, sans-serif" font-size="12" font-weight="720">benchmarked</text>
      <rect x="224" width="102" height="30" rx="15" fill="#FFFFFF" fill-opacity="0.10"/>
      <text x="275" y="20" fill="#FFFFFF" text-anchor="middle" font-family="Inter, Segoe UI, Arial, sans-serif" font-size="12" font-weight="720">production</text>
    </g>
  </g>
</svg>
