<svg width="1440" height="520" viewBox="0 0 1440 520" fill="none" xmlns="http://www.w3.org/2000/svg" role="img" aria-labelledby="title desc">
  <title id="title">CaspianG profile banner</title>
  <desc id="desc">A minimal black and white banner for CaspianG, focused on adaptive memory systems and WaveMind.</desc>

  <rect width="1440" height="520" rx="36" fill="#0B0B0D"/>
  <rect x="1" y="1" width="1438" height="518" rx="35" stroke="#FFFFFF" stroke-opacity="0.10" stroke-width="2"/>

  <g opacity="0.08">
    <path d="M0 80H1440M0 160H1440M0 240H1440M0 320H1440M0 400H1440M0 480H1440" stroke="#FFFFFF"/>
    <path d="M120 0V520M240 0V520M360 0V520M480 0V520M600 0V520M720 0V520M840 0V520M960 0V520M1080 0V520M1200 0V520M1320 0V520" stroke="#FFFFFF"/>
  </g>

  <g transform="translate(84 74)">
    <rect width="86" height="86" rx="24" fill="#FFFFFF"/>
    <circle cx="43" cy="43" r="27" fill="#0B0B0D"/>
    <path d="M31 24C26 31 24 37 24 43C24 49 26 55 31 62" stroke="#FFFFFF" stroke-width="5" stroke-linecap="round"/>
    <path d="M55 24C60 31 62 37 62 43C62 49 60 55 55 62" stroke="#FFFFFF" stroke-width="5" stroke-linecap="round"/>
    <path d="M25 43H61" stroke="#FFFFFF" stroke-width="5" stroke-linecap="round"/>
  </g>

  <text x="84" y="228" fill="#FFFFFF" font-family="Inter, Segoe UI, Arial, sans-serif" font-size="86" font-weight="850" letter-spacing="0">CaspianG</text>
  <text x="88" y="282" fill="#FFFFFF" font-family="Inter, Segoe UI, Arial, sans-serif" font-size="32" font-weight="760" letter-spacing="0">adaptive memory systems</text>
  <text x="88" y="326" fill="#B9B9BE" font-family="Inter, Segoe UI, Arial, sans-serif" font-size="20" font-weight="520" letter-spacing="0">software that remembers, prioritizes, explains, and forgets</text>

  <g transform="translate(88 370)">
    <rect width="114" height="40" rx="20" fill="#FFFFFF"/>
    <text x="57" y="25" text-anchor="middle" fill="#0B0B0D" font-family="Inter, Segoe UI, Arial, sans-serif" font-size="13" font-weight="820">local-first</text>

    <rect x="130" width="128" height="40" rx="20" fill="#0B0B0D" stroke="#FFFFFF" stroke-opacity="0.24" stroke-width="2"/>
    <text x="194" y="25" text-anchor="middle" fill="#FFFFFF" font-family="Inter, Segoe UI, Arial, sans-serif" font-size="13" font-weight="780">benchmarked</text>

    <rect x="274" width="174" height="40" rx="20" fill="#0B0B0D" stroke="#FFFFFF" stroke-opacity="0.24" stroke-width="2"/>
    <text x="361" y="25" text-anchor="middle" fill="#FFFFFF" font-family="Inter, Segoe UI, Arial, sans-serif" font-size="13" font-weight="780">production path</text>
  </g>

  <g transform="translate(750 64)">
    <rect width="604" height="392" rx="34" fill="#111114" stroke="#FFFFFF" stroke-opacity="0.14" stroke-width="2"/>

    <g transform="translate(42 38)">
      <text x="0" y="0" fill="#FFFFFF" font-family="Inter, Segoe UI, Arial, sans-serif" font-size="21" font-weight="840">memory field</text>
      <text x="0" y="31" fill="#B9B9BE" font-family="Inter, Segoe UI, Arial, sans-serif" font-size="14" font-weight="520">candidate search + dynamic behavior</text>
    </g>

    <g transform="translate(56 102)">
      <path d="M0 172C64 94 130 92 194 154C258 216 324 216 388 146C440 90 486 70 536 88" stroke="#FFFFFF" stroke-width="4" stroke-linecap="round"/>
      <path d="M0 214C64 136 130 134 194 196C258 258 324 258 388 188C440 132 486 112 536 130" stroke="#FFFFFF" stroke-opacity="0.18" stroke-width="3" stroke-linecap="round"/>

      <path d="M0 172L92 106L194 154L300 220L388 146L536 88" stroke="#FFFFFF" stroke-opacity="0.17" stroke-width="2"/>
      <path d="M92 106L300 220M194 154L388 146M300 220L536 88" stroke="#FFFFFF" stroke-opacity="0.12" stroke-width="2"/>

      <circle cx="0" cy="172" r="12" fill="#FFFFFF"/>
      <circle cx="92" cy="106" r="15" fill="#FFFFFF"/>
      <circle cx="194" cy="154" r="22" fill="#FFFFFF"/>
      <circle cx="300" cy="220" r="13" fill="#FFFFFF"/>
      <circle cx="388" cy="146" r="18" fill="#FFFFFF"/>
      <circle cx="536" cy="88" r="14" fill="#FFFFFF"/>

      <circle cx="92" cy="106" r="44" stroke="#FFFFFF" stroke-opacity="0.08" stroke-width="2"/>
      <circle cx="194" cy="154" r="62" stroke="#FFFFFF" stroke-opacity="0.08" stroke-width="2"/>
      <circle cx="388" cy="146" r="52" stroke="#FFFFFF" stroke-opacity="0.08" stroke-width="2"/>
    </g>

    <g transform="translate(42 318)">
      <rect width="124" height="44" rx="16" fill="#FFFFFF"/>
      <text x="62" y="28" text-anchor="middle" fill="#0B0B0D" font-family="Inter, Segoe UI, Arial, sans-serif" font-size="14" font-weight="820">remember</text>

      <path d="M188 22H224" stroke="#FFFFFF" stroke-opacity="0.72" stroke-width="2.5" stroke-linecap="round"/>
      <path d="M214 11L228 22L214 33" stroke="#FFFFFF" stroke-opacity="0.72" stroke-width="2.5" stroke-linecap="round" stroke-linejoin="round"/>

      <rect x="260" width="96" height="44" rx="16" fill="#111114" stroke="#FFFFFF" stroke-opacity="0.30" stroke-width="2"/>
      <text x="308" y="28" text-anchor="middle" fill="#FFFFFF" font-family="Inter, Segoe UI, Arial, sans-serif" font-size="14" font-weight="820">recall</text>

      <path d="M382 22H418" stroke="#FFFFFF" stroke-opacity="0.72" stroke-width="2.5" stroke-linecap="round"/>
      <path d="M408 11L422 22L408 33" stroke="#FFFFFF" stroke-opacity="0.72" stroke-width="2.5" stroke-linecap="round" stroke-linejoin="round"/>

      <rect x="454" width="96" height="44" rx="16" fill="#111114" stroke="#FFFFFF" stroke-opacity="0.30" stroke-width="2"/>
      <text x="502" y="28" text-anchor="middle" fill="#FFFFFF" font-family="Inter, Segoe UI, Arial, sans-serif" font-size="14" font-weight="820">adapt</text>
    </g>
  </g>
</svg>
