<svg width="1440" height="360" viewBox="0 0 1440 360" fill="none" xmlns="http://www.w3.org/2000/svg" role="img" aria-labelledby="title desc">
  <title id="title">CaspianG profile banner</title>
  <desc id="desc">Minimal black on white banner for CaspianG and WaveMind dynamic memory systems.</desc>

  <rect width="1440" height="360" rx="28" fill="#FFFFFF"/>
  <rect x="1" y="1" width="1438" height="358" rx="27" stroke="#111111" stroke-opacity="0.16" stroke-width="2"/>

  <g opacity="0.045">
    <path d="M0 90H1440M0 180H1440M0 270H1440" stroke="#111111"/>
    <path d="M120 0V360M240 0V360M360 0V360M480 0V360M600 0V360M720 0V360M840 0V360M960 0V360M1080 0V360M1200 0V360M1320 0V360" stroke="#111111"/>
  </g>

  <g transform="translate(76 66)">
    <rect width="88" height="88" rx="22" fill="#111111"/>
    <circle cx="44" cy="44" r="28" fill="#FFFFFF"/>
    <path d="M34 22C29 31 27 38 27 44C27 50 29 57 34 66" stroke="#111111" stroke-width="5" stroke-linecap="round"/>
    <path d="M54 22C59 31 61 38 61 44C61 50 59 57 54 66" stroke="#111111" stroke-width="5" stroke-linecap="round"/>
    <path d="M26 44H62" stroke="#111111" stroke-width="5" stroke-linecap="round"/>
  </g>

  <text x="76" y="216" fill="#111111" font-family="Inter, Segoe UI, Arial, sans-serif" font-size="74" font-weight="820" letter-spacing="0">CaspianG</text>
  <text x="80" y="262" fill="#111111" font-family="Inter, Segoe UI, Arial, sans-serif" font-size="28" font-weight="650" letter-spacing="0">WaveMind / dynamic memory systems</text>
  <text x="82" y="300" fill="#555555" font-family="Inter, Segoe UI, Arial, sans-serif" font-size="20" font-weight="500" letter-spacing="0">memory infrastructure for agents and software that adapts</text>

  <g transform="translate(760 76)">
    <path d="M0 126C90 52 178 50 282 104C390 160 500 138 604 58" stroke="#111111" stroke-width="3.5" stroke-linecap="round"/>
    <path d="M0 176C90 102 178 100 282 154C390 210 500 188 604 108" stroke="#111111" stroke-opacity="0.28" stroke-width="2.5" stroke-linecap="round"/>

    <g transform="translate(14 18)">
      <rect width="150" height="52" rx="18" fill="#FFFFFF" stroke="#111111" stroke-width="2"/>
      <text x="75" y="33" text-anchor="middle" fill="#111111" font-family="Inter, Segoe UI, Arial, sans-serif" font-size="18" font-weight="760">remember</text>
    </g>
    <path d="M184 44H246" stroke="#111111" stroke-width="2.5" stroke-linecap="round"/>
    <path d="M236 34L250 44L236 54" stroke="#111111" stroke-width="2.5" stroke-linecap="round" stroke-linejoin="round"/>

    <g transform="translate(272 18)">
      <rect width="120" height="52" rx="18" fill="#111111"/>
      <text x="60" y="33" text-anchor="middle" fill="#FFFFFF" font-family="Inter, Segoe UI, Arial, sans-serif" font-size="18" font-weight="760">recall</text>
    </g>
    <path d="M410 44H472" stroke="#111111" stroke-width="2.5" stroke-linecap="round"/>
    <path d="M462 34L476 44L462 54" stroke="#111111" stroke-width="2.5" stroke-linecap="round" stroke-linejoin="round"/>

    <g transform="translate(498 18)">
      <rect width="148" height="52" rx="18" fill="#FFFFFF" stroke="#111111" stroke-width="2"/>
      <text x="74" y="33" text-anchor="middle" fill="#111111" font-family="Inter, Segoe UI, Arial, sans-serif" font-size="18" font-weight="760">adapt</text>
    </g>

    <g transform="translate(70 214)">
      <text x="0" y="0" fill="#555555" font-family="Inter, Segoe UI, Arial, sans-serif" font-size="17" font-weight="600">local-first</text>
      <circle cx="118" cy="-5" r="4" fill="#111111"/>
      <text x="138" y="0" fill="#555555" font-family="Inter, Segoe UI, Arial, sans-serif" font-size="17" font-weight="600">benchmarked</text>
      <circle cx="274" cy="-5" r="4" fill="#111111"/>
      <text x="294" y="0" fill="#555555" font-family="Inter, Segoe UI, Arial, sans-serif" font-size="17" font-weight="600">production-aware</text>
    </g>
  </g>
</svg>
