<svg width="1440" height="560" viewBox="0 0 1440 560" fill="none" xmlns="http://www.w3.org/2000/svg" role="img" aria-labelledby="title desc">
  <title id="title">CaspianG builds adaptive memory systems</title>
  <desc id="desc">A black and white profile hero for CaspianG and WaveMind.</desc>

  <defs>
    <linearGradient id="fade" x1="720" y1="0" x2="720" y2="560" gradientUnits="userSpaceOnUse">
      <stop stop-color="#101114"/>
      <stop offset="1" stop-color="#050505"/>
    </linearGradient>
    <filter id="softShadow" x="-20%" y="-20%" width="140%" height="140%">
      <feDropShadow dx="0" dy="24" stdDeviation="30" flood-color="#000000" flood-opacity="0.45"/>
    </filter>
  </defs>

  <rect width="1440" height="560" rx="38" fill="url(#fade)"/>
  <rect x="1.5" y="1.5" width="1437" height="557" rx="36.5" stroke="#2C2F36" stroke-width="3"/>

  <g opacity="0.18">
    <path d="M80 110H620M80 190H620M80 270H620M80 350H620M80 430H620" stroke="#FFFFFF" stroke-width="1"/>
    <path d="M140 70V490M260 70V490M380 70V490M500 70V490M620 70V490" stroke="#FFFFFF" stroke-width="1"/>
  </g>

  <g font-family="Inter, Segoe UI, Arial, sans-serif">
    <rect x="82" y="76" width="188" height="44" rx="22" fill="#FFFFFF"/>
    <text x="176" y="104" text-anchor="middle" fill="#050505" font-size="15" font-weight="850">CASPIANG</text>

    <text x="82" y="216" fill="#FFFFFF" font-size="64" font-weight="850">Adaptive memory</text>
    <text x="82" y="290" fill="#FFFFFF" font-size="64" font-weight="850">for durable context</text>
    <text x="86" y="348" fill="#D7D9DF" font-size="21" font-weight="650">local-first systems that remember, adapt, and stay inspectable</text>

    <g transform="translate(82 418)">
      <rect width="154" height="48" rx="24" fill="#FFFFFF"/>
      <text x="77" y="31" text-anchor="middle" fill="#050505" font-size="15" font-weight="850">WaveMind</text>

      <rect x="174" width="138" height="48" rx="24" fill="#15171B" stroke="#5D6370" stroke-width="1.4"/>
      <text x="243" y="31" text-anchor="middle" fill="#FFFFFF" font-size="15" font-weight="800">benchmarks</text>

      <rect x="332" width="126" height="48" rx="24" fill="#15171B" stroke="#5D6370" stroke-width="1.4"/>
      <text x="395" y="31" text-anchor="middle" fill="#FFFFFF" font-size="15" font-weight="800">APIs</text>

      <rect x="478" width="150" height="48" rx="24" fill="#15171B" stroke="#5D6370" stroke-width="1.4"/>
      <text x="553" y="31" text-anchor="middle" fill="#FFFFFF" font-size="15" font-weight="800">open source</text>
    </g>
  </g>

  <g transform="translate(760 70)" filter="url(#softShadow)">
    <rect width="596" height="420" rx="34" fill="#0B0C0F" stroke="#3A3E47" stroke-width="1.6"/>
    <rect x="26" y="26" width="544" height="368" rx="26" fill="#111318" stroke="#323641" stroke-width="1.2"/>

    <g opacity="0.28" stroke="#FFFFFF" stroke-width="1">
      <circle cx="298" cy="210" r="154"/>
      <circle cx="298" cy="210" r="108"/>
      <circle cx="298" cy="210" r="62"/>
      <path d="M144 210H452M298 56V364"/>
      <path d="M190 102L406 318M406 102L190 318"/>
    </g>

    <g stroke="#FFFFFF" stroke-width="3.4" stroke-linecap="round" stroke-linejoin="round">
      <path d="M164 140C214 164 258 194 298 210"/>
      <path d="M432 140C382 164 338 194 298 210"/>
      <path d="M164 280C214 256 258 226 298 210"/>
      <path d="M432 280C382 256 338 226 298 210"/>
    </g>

    <g fill="#FFFFFF">
      <circle cx="298" cy="210" r="24"/>
      <circle cx="164" cy="140" r="15"/>
      <circle cx="432" cy="140" r="15"/>
      <circle cx="164" cy="280" r="15"/>
      <circle cx="432" cy="280" r="15"/>
    </g>

    <g font-family="Inter, Segoe UI, Arial, sans-serif">
      <rect x="68" y="52" width="150" height="48" rx="17" fill="#FFFFFF"/>
      <text x="143" y="82" text-anchor="middle" fill="#050505" font-size="14" font-weight="850">remember</text>

      <rect x="378" y="52" width="150" height="48" rx="17" fill="#20232A" stroke="#5D6370" stroke-width="1.2"/>
      <text x="453" y="82" text-anchor="middle" fill="#FFFFFF" font-size="14" font-weight="850">retrieve</text>

      <rect x="68" y="320" width="150" height="48" rx="17" fill="#20232A" stroke="#5D6370" stroke-width="1.2"/>
      <text x="143" y="350" text-anchor="middle" fill="#FFFFFF" font-size="14" font-weight="850">adapt</text>

      <rect x="378" y="320" width="150" height="48" rx="17" fill="#20232A" stroke="#5D6370" stroke-width="1.2"/>
      <text x="453" y="350" text-anchor="middle" fill="#FFFFFF" font-size="14" font-weight="850">explain</text>

      <rect x="228" y="174" width="140" height="72" rx="24" fill="#FFFFFF"/>
      <text x="298" y="205" text-anchor="middle" fill="#050505" font-size="17" font-weight="900">memory</text>
      <text x="298" y="228" text-anchor="middle" fill="#454A54" font-size="13" font-weight="800">field</text>
    </g>
  </g>
</svg>
