<svg width="1440" height="560" viewBox="0 0 1440 560" fill="none" xmlns="http://www.w3.org/2000/svg" role="img" aria-labelledby="title desc">
  <title id="title">CaspianG builds adaptive memory systems</title>
  <desc id="desc">A minimal monochrome GitHub profile hero for WaveMind and adaptive memory infrastructure.</desc>

  <rect width="1440" height="560" rx="36" fill="#050505"/>
  <rect x="1.5" y="1.5" width="1437" height="557" rx="34.5" stroke="#34373E" stroke-width="3"/>

  <g opacity="0.22">
    <path d="M80 92H1360M80 186H1360M80 280H1360M80 374H1360M80 468H1360" stroke="#FFFFFF" stroke-width="1"/>
    <path d="M158 70V492M306 70V492M454 70V492M602 70V492M750 70V492M898 70V492M1046 70V492M1194 70V492M1342 70V492" stroke="#FFFFFF" stroke-width="1"/>
  </g>

  <g transform="translate(80 72)">
    <rect x="0" y="0" width="92" height="92" rx="28" fill="#FFFFFF"/>
    <circle cx="46" cy="46" r="25" fill="#050505"/>
    <path d="M30 49C39 37 53 37 62 49" stroke="#FFFFFF" stroke-width="8" stroke-linecap="round"/>
    <circle cx="36" cy="42" r="3.5" fill="#FFFFFF"/>
    <circle cx="56" cy="42" r="3.5" fill="#FFFFFF"/>
  </g>

  <text x="80" y="218" fill="#FFFFFF" font-family="Inter, Segoe UI, Arial, sans-serif" font-size="18" font-weight="800" letter-spacing="2.2">CASPIANG</text>
  <text x="80" y="304" fill="#FFFFFF" font-family="Inter, Segoe UI, Arial, sans-serif" font-size="72" font-weight="850">Adaptive memory</text>
  <text x="80" y="384" fill="#FFFFFF" font-family="Inter, Segoe UI, Arial, sans-serif" font-size="72" font-weight="850">systems.</text>
  <text x="84" y="428" fill="#D6D8DE" font-family="Inter, Segoe UI, Arial, sans-serif" font-size="23" font-weight="600">local-first / inspectable / benchmarked / built for durable context</text>

  <g transform="translate(80 466)">
    <rect x="0" y="0" width="146" height="42" rx="21" fill="#FFFFFF"/>
    <text x="73" y="27" text-anchor="middle" fill="#050505" font-family="Inter, Segoe UI, Arial, sans-serif" font-size="14" font-weight="850">WaveMind</text>
    <rect x="162" y="0" width="158" height="42" rx="21" stroke="#8D929D" stroke-width="1.5"/>
    <text x="241" y="27" text-anchor="middle" fill="#FFFFFF" font-family="Inter, Segoe UI, Arial, sans-serif" font-size="14" font-weight="800">open source</text>
    <rect x="336" y="0" width="176" height="42" rx="21" stroke="#8D929D" stroke-width="1.5"/>
    <text x="424" y="27" text-anchor="middle" fill="#FFFFFF" font-family="Inter, Segoe UI, Arial, sans-serif" font-size="14" font-weight="800">memory engine</text>
  </g>

  <g transform="translate(836 72)">
    <rect x="0" y="0" width="524" height="416" rx="34" fill="#111215" stroke="#42464F" stroke-width="1.5"/>
    <text x="42" y="70" fill="#FFFFFF" font-family="Inter, Segoe UI, Arial, sans-serif" font-size="30" font-weight="850">WaveMind</text>
    <text x="42" y="101" fill="#C8CBD2" font-family="Inter, Segoe UI, Arial, sans-serif" font-size="17" font-weight="650">memory that changes with use</text>

    <g transform="translate(42 132)" font-family="Inter, Segoe UI, Arial, sans-serif">
      <rect x="0" y="0" width="440" height="56" rx="17" fill="#FFFFFF"/>
      <text x="24" y="36" fill="#050505" font-size="18" font-weight="850">remember</text>
      <text x="166" y="36" fill="#4D515A" font-size="15" font-weight="650">facts, metadata, namespace</text>

      <rect x="0" y="72" width="440" height="56" rx="17" fill="#1D1F24" stroke="#3D414A" stroke-width="1.2"/>
      <text x="24" y="108" fill="#FFFFFF" font-size="18" font-weight="850">retrieve</text>
      <text x="166" y="108" fill="#B9BDC6" font-size="15" font-weight="650">vector candidates, top-k</text>

      <rect x="0" y="144" width="440" height="56" rx="17" fill="#1D1F24" stroke="#3D414A" stroke-width="1.2"/>
      <text x="24" y="180" fill="#FFFFFF" font-size="18" font-weight="850">adapt</text>
      <text x="166" y="180" fill="#B9BDC6" font-size="15" font-weight="650">hotness, decay, corrections</text>

      <rect x="0" y="216" width="440" height="56" rx="17" fill="#1D1F24" stroke="#3D414A" stroke-width="1.2"/>
      <text x="24" y="252" fill="#FFFFFF" font-size="18" font-weight="850">explain</text>
      <text x="166" y="252" fill="#B9BDC6" font-size="15" font-weight="650">scores, provenance, evidence</text>
    </g>

  </g>
</svg>
