<svg width="1440" height="560" viewBox="0 0 1440 560" fill="none" xmlns="http://www.w3.org/2000/svg" role="img" aria-labelledby="title desc">
  <title id="title">CaspianG builds dynamic memory infrastructure</title>
  <desc id="desc">A modern monochrome GitHub profile banner for WaveMind and dynamic memory infrastructure.</desc>

  <rect width="1440" height="560" rx="42" fill="#FFFFFF"/>
  <rect x="1.5" y="1.5" width="1437" height="557" rx="40.5" stroke="#D8DEE8" stroke-width="3"/>

  <g opacity="0.72">
    <path d="M80 92H1360" stroke="#EEF1F5" stroke-width="2"/>
    <path d="M80 172H1360" stroke="#EEF1F5" stroke-width="2"/>
    <path d="M80 252H1360" stroke="#EEF1F5" stroke-width="2"/>
    <path d="M80 332H1360" stroke="#EEF1F5" stroke-width="2"/>
    <path d="M80 412H1360" stroke="#EEF1F5" stroke-width="2"/>
    <path d="M188 70V490" stroke="#EEF1F5" stroke-width="2"/>
    <path d="M316 70V490" stroke="#EEF1F5" stroke-width="2"/>
    <path d="M444 70V490" stroke="#EEF1F5" stroke-width="2"/>
    <path d="M572 70V490" stroke="#EEF1F5" stroke-width="2"/>
    <path d="M700 70V490" stroke="#EEF1F5" stroke-width="2"/>
    <path d="M828 70V490" stroke="#EEF1F5" stroke-width="2"/>
    <path d="M956 70V490" stroke="#EEF1F5" stroke-width="2"/>
    <path d="M1084 70V490" stroke="#EEF1F5" stroke-width="2"/>
    <path d="M1212 70V490" stroke="#EEF1F5" stroke-width="2"/>
  </g>

  <g font-family="Inter, Segoe UI, Arial, sans-serif">
    <g transform="translate(90 74)">
      <rect width="154" height="42" rx="21" fill="#050505"/>
      <text x="77" y="27" text-anchor="middle" fill="#FFFFFF" font-size="13" font-weight="900" letter-spacing="2.2">CASPIANG</text>

      <text x="0" y="138" fill="#050505" font-size="72" font-weight="900">Memory systems</text>
      <text x="0" y="214" fill="#050505" font-size="72" font-weight="900">that stay useful</text>
      <text x="0" y="290" fill="#050505" font-size="72" font-weight="900">over time.</text>

      <text x="4" y="344" fill="#222733" font-size="24" font-weight="800">WaveMind turns retrieval into stateful, auditable memory.</text>
      <text x="4" y="382" fill="#667085" font-size="18" font-weight="650">Local-first. Benchmarked. Built for software with long timelines.</text>

      <g transform="translate(0 426)" font-size="13" font-weight="900">
        <rect width="124" height="44" rx="22" fill="#050505"/>
        <text x="62" y="29" text-anchor="middle" fill="#FFFFFF">remember</text>

        <rect x="138" width="104" height="44" rx="22" fill="#FFFFFF" stroke="#B7BFCC" stroke-width="1.5"/>
        <text x="190" y="29" text-anchor="middle" fill="#050505">update</text>

        <rect x="256" width="102" height="44" rx="22" fill="#FFFFFF" stroke="#B7BFCC" stroke-width="1.5"/>
        <text x="307" y="29" text-anchor="middle" fill="#050505">forget</text>

        <rect x="372" width="112" height="44" rx="22" fill="#FFFFFF" stroke="#B7BFCC" stroke-width="1.5"/>
        <text x="428" y="29" text-anchor="middle" fill="#050505">explain</text>
      </g>
    </g>

    <g transform="translate(892 66)">
      <rect width="418" height="428" rx="38" fill="#050505"/>
      <rect x="1.5" y="1.5" width="415" height="425" rx="36.5" stroke="#323947" stroke-width="3"/>

      <g transform="translate(40 36)">
        <text x="0" y="18" fill="#AEB7C8" font-size="12" font-weight="900" letter-spacing="2.4">WAVEMIND</text>
        <text x="0" y="58" fill="#FFFFFF" font-size="34" font-weight="900">dynamic recall</text>
        <text x="0" y="90" fill="#C8D0DC" font-size="16" font-weight="650">Search finds candidates.</text>
        <text x="0" y="116" fill="#C8D0DC" font-size="16" font-weight="650">Memory state decides what matters.</text>
      </g>

      <g transform="translate(80 166)">
        <circle cx="130" cy="130" r="112" stroke="#FFFFFF" stroke-width="1.4" opacity="0.10"/>
        <circle cx="130" cy="130" r="82" stroke="#FFFFFF" stroke-width="1.4" opacity="0.18"/>
        <circle cx="130" cy="130" r="48" stroke="#FFFFFF" stroke-width="1.4" opacity="0.26"/>
        <path d="M22 130C61 66 199 66 238 130" stroke="#FFFFFF" stroke-width="2.2" stroke-linecap="round" opacity="0.22"/>
        <path d="M22 130C61 194 199 194 238 130" stroke="#FFFFFF" stroke-width="2.2" stroke-linecap="round" opacity="0.22"/>
        <path d="M130 22C82 66 82 194 130 238" stroke="#FFFFFF" stroke-width="2.2" stroke-linecap="round" opacity="0.16"/>
        <path d="M130 22C178 66 178 194 130 238" stroke="#FFFFFF" stroke-width="2.2" stroke-linecap="round" opacity="0.16"/>

        <g stroke="#FFFFFF" stroke-width="2.5" stroke-linecap="round" opacity="0.78">
          <path d="M52 130H102"/>
          <path d="M158 130H208"/>
          <path d="M130 52V102"/>
          <path d="M77 77L111 111"/>
          <path d="M182 183L149 150"/>
        </g>

        <g fill="#FFFFFF">
          <circle cx="130" cy="130" r="34"/>
          <circle cx="22" cy="130" r="8"/>
          <circle cx="238" cy="130" r="8"/>
          <circle cx="130" cy="22" r="7"/>
          <circle cx="77" cy="77" r="6"/>
          <circle cx="182" cy="183" r="6"/>
        </g>
      </g>

      <g transform="translate(36 366)" font-size="12" font-weight="900">
        <rect width="78" height="36" rx="18" fill="#FFFFFF"/>
        <text x="39" y="24" text-anchor="middle" fill="#050505">hotness</text>

        <rect x="88" width="64" height="36" rx="18" fill="#151922" stroke="#596274" stroke-width="1.1"/>
        <text x="120" y="24" text-anchor="middle" fill="#FFFFFF">decay</text>

        <rect x="162" width="54" height="36" rx="18" fill="#151922" stroke="#596274" stroke-width="1.1"/>
        <text x="189" y="24" text-anchor="middle" fill="#FFFFFF">TTL</text>

        <rect x="226" width="66" height="36" rx="18" fill="#151922" stroke="#596274" stroke-width="1.1"/>
        <text x="259" y="24" text-anchor="middle" fill="#FFFFFF">graph</text>

        <rect x="302" width="44" height="36" rx="18" fill="#151922" stroke="#596274" stroke-width="1.1"/>
        <text x="324" y="24" text-anchor="middle" fill="#FFFFFF">API</text>
      </g>
    </g>
  </g>
</svg>
