<svg width="1440" height="560" viewBox="0 0 1440 560" fill="none" xmlns="http://www.w3.org/2000/svg" role="img" aria-labelledby="title desc">
  <title id="title">CaspianG builds memory systems</title>
  <desc id="desc">A minimal monochrome GitHub profile hero for memory infrastructure and WaveMind.</desc>

  <rect width="1440" height="560" rx="36" fill="#050505"/>
  <rect x="1.5" y="1.5" width="1437" height="557" rx="34.5" stroke="#2A2D33" stroke-width="3"/>

  <g opacity="0.16">
    <path d="M80 92H1360M80 186H1360M80 280H1360M80 374H1360M80 468H1360" stroke="#FFFFFF" stroke-width="1"/>
    <path d="M158 70V492M306 70V492M454 70V492M602 70V492M750 70V492M898 70V492M1046 70V492M1194 70V492M1342 70V492" stroke="#FFFFFF" stroke-width="1"/>
  </g>

  <g transform="translate(80 70)">
    <rect x="0" y="0" width="92" height="92" rx="28" fill="#FFFFFF"/>
    <path d="M46 20C31.64 20 20 31.64 20 46C20 60.36 31.64 72 46 72C60.36 72 72 60.36 72 46C72 31.64 60.36 20 46 20Z" fill="#050505"/>
    <path d="M31 50C40 38 52 38 61 50" stroke="#FFFFFF" stroke-width="8" stroke-linecap="round"/>
    <circle cx="36" cy="42" r="3.5" fill="#FFFFFF"/>
    <circle cx="56" cy="42" r="3.5" fill="#FFFFFF"/>
  </g>

  <text x="80" y="214" fill="#FFFFFF" font-family="Inter, Segoe UI, Arial, sans-serif" font-size="18" font-weight="800" letter-spacing="2.4">CASPIANG</text>
  <text x="80" y="298" fill="#FFFFFF" font-family="Inter, Segoe UI, Arial, sans-serif" font-size="74" font-weight="850">Memory systems</text>
  <text x="80" y="380" fill="#FFFFFF" font-family="Inter, Segoe UI, Arial, sans-serif" font-size="74" font-weight="850">for durable context.</text>
  <text x="84" y="428" fill="#D6D8DE" font-family="Inter, Segoe UI, Arial, sans-serif" font-size="23" font-weight="600">local-first / inspectable / benchmarked / built to remember what matters</text>

  <g transform="translate(80 466)" font-family="Inter, Segoe UI, Arial, sans-serif">
    <rect x="0" y="0" width="146" height="42" rx="21" fill="#FFFFFF"/>
    <text x="73" y="27" text-anchor="middle" fill="#050505" font-size="14" font-weight="850">WaveMind</text>
    <rect x="162" y="0" width="160" height="42" rx="21" stroke="#858A95" stroke-width="1.5"/>
    <text x="242" y="27" text-anchor="middle" fill="#FFFFFF" font-size="14" font-weight="800">open source</text>
    <rect x="338" y="0" width="176" height="42" rx="21" stroke="#858A95" stroke-width="1.5"/>
    <text x="426" y="27" text-anchor="middle" fill="#FFFFFF" font-size="14" font-weight="800">memory engine</text>
  </g>

  <g transform="translate(850 74)">
    <rect x="0" y="0" width="508" height="414" rx="34" fill="#111215" stroke="#3F444E" stroke-width="1.5"/>

    <g opacity="0.28">
      <circle cx="255" cy="206" r="142" stroke="#FFFFFF" stroke-width="1.3"/>
      <circle cx="255" cy="206" r="96" stroke="#FFFFFF" stroke-width="1.3"/>
      <circle cx="255" cy="206" r="50" stroke="#FFFFFF" stroke-width="1.3"/>
      <path d="M113 206H397M255 64V348" stroke="#FFFFFF" stroke-width="1.2"/>
    </g>

    <circle cx="255" cy="206" r="18" fill="#FFFFFF"/>
    <circle cx="173" cy="144" r="12" fill="#FFFFFF"/>
    <circle cx="335" cy="147" r="12" fill="#FFFFFF"/>
    <circle cx="179" cy="278" r="12" fill="#FFFFFF"/>
    <circle cx="343" cy="274" r="12" fill="#FFFFFF"/>

    <path d="M188 153C210 181 223 194 239 202" stroke="#FFFFFF" stroke-width="3" stroke-linecap="round"/>
    <path d="M322 156C300 181 286 194 271 202" stroke="#FFFFFF" stroke-width="3" stroke-linecap="round"/>
    <path d="M191 270C215 241 228 225 242 214" stroke="#FFFFFF" stroke-width="3" stroke-linecap="round"/>
    <path d="M331 266C308 242 291 225 268 214" stroke="#FFFFFF" stroke-width="3" stroke-linecap="round"/>

    <g font-family="Inter, Segoe UI, Arial, sans-serif">
      <rect x="42" y="36" width="134" height="48" rx="16" fill="#FFFFFF"/>
      <text x="109" y="66" text-anchor="middle" fill="#050505" font-size="14" font-weight="850">remember</text>

      <rect x="332" y="36" width="134" height="48" rx="16" fill="#1D1F24" stroke="#4A4F5A" stroke-width="1.2"/>
      <text x="399" y="66" text-anchor="middle" fill="#FFFFFF" font-size="14" font-weight="850">retrieve</text>

      <rect x="42" y="330" width="134" height="48" rx="16" fill="#1D1F24" stroke="#4A4F5A" stroke-width="1.2"/>
      <text x="109" y="360" text-anchor="middle" fill="#FFFFFF" font-size="14" font-weight="850">adapt</text>

      <rect x="332" y="330" width="134" height="48" rx="16" fill="#1D1F24" stroke="#4A4F5A" stroke-width="1.2"/>
      <text x="399" y="360" text-anchor="middle" fill="#FFFFFF" font-size="14" font-weight="850">explain</text>
    </g>
  </g>
</svg>
