<svg width="1440" height="560" viewBox="0 0 1440 560" fill="none" xmlns="http://www.w3.org/2000/svg" role="img" aria-labelledby="title desc">
  <title id="title">CaspianG builds dynamic memory systems</title>
  <desc id="desc">A monochrome GitHub profile banner for WaveMind and dynamic memory infrastructure.</desc>

  <rect width="1440" height="560" rx="40" fill="#FFFFFF"/>
  <rect x="1.5" y="1.5" width="1437" height="557" rx="38.5" stroke="#D9DEE8" stroke-width="3"/>

  <g opacity="0.7">
    <path d="M84 92H1356" stroke="#EEF1F5" stroke-width="2"/>
    <path d="M84 172H1356" stroke="#EEF1F5" stroke-width="2"/>
    <path d="M84 252H1356" stroke="#EEF1F5" stroke-width="2"/>
    <path d="M84 332H1356" stroke="#EEF1F5" stroke-width="2"/>
    <path d="M84 412H1356" stroke="#EEF1F5" stroke-width="2"/>
    <path d="M180 70V490" stroke="#EEF1F5" stroke-width="2"/>
    <path d="M300 70V490" stroke="#EEF1F5" stroke-width="2"/>
    <path d="M420 70V490" stroke="#EEF1F5" stroke-width="2"/>
    <path d="M540 70V490" stroke="#EEF1F5" stroke-width="2"/>
    <path d="M660 70V490" stroke="#EEF1F5" stroke-width="2"/>
    <path d="M780 70V490" stroke="#EEF1F5" stroke-width="2"/>
    <path d="M900 70V490" stroke="#EEF1F5" stroke-width="2"/>
    <path d="M1020 70V490" stroke="#EEF1F5" stroke-width="2"/>
    <path d="M1140 70V490" stroke="#EEF1F5" stroke-width="2"/>
    <path d="M1260 70V490" stroke="#EEF1F5" stroke-width="2"/>
  </g>

  <g font-family="Inter, Segoe UI, Arial, sans-serif">
    <g transform="translate(92 78)">
      <rect width="150" height="40" rx="20" fill="#050505"/>
      <text x="75" y="26" text-anchor="middle" fill="#FFFFFF" font-size="13" font-weight="900" letter-spacing="2">CASPIANG</text>

      <text x="0" y="138" fill="#050505" font-size="82" font-weight="900">Dynamic memory</text>
      <text x="0" y="218" fill="#050505" font-size="82" font-weight="900">for software</text>

      <text x="4" y="286" fill="#222733" font-size="25" font-weight="800">Local-first systems that remember, forget, adapt, and explain.</text>
      <text x="4" y="324" fill="#667085" font-size="19" font-weight="650">WaveMind turns retrieval into stateful, auditable memory.</text>

      <g transform="translate(0 388)" font-size="14" font-weight="900">
        <rect width="138" height="48" rx="24" fill="#050505"/>
        <text x="69" y="31" text-anchor="middle" fill="#FFFFFF">WaveMind</text>

        <rect x="154" width="126" height="48" rx="24" fill="#FFFFFF" stroke="#B9C0CC" stroke-width="1.4"/>
        <text x="217" y="31" text-anchor="middle" fill="#050505">local-first</text>

        <rect x="296" width="148" height="48" rx="24" fill="#FFFFFF" stroke="#B9C0CC" stroke-width="1.4"/>
        <text x="370" y="31" text-anchor="middle" fill="#050505">benchmarked</text>

        <rect x="460" width="120" height="48" rx="24" fill="#FFFFFF" stroke="#B9C0CC" stroke-width="1.4"/>
        <text x="520" y="31" text-anchor="middle" fill="#050505">open API</text>
      </g>
    </g>

    <g transform="translate(890 76)">
      <rect width="408" height="408" rx="34" fill="#050505"/>
      <rect x="1.5" y="1.5" width="405" height="405" rx="32.5" stroke="#303744" stroke-width="3"/>

      <g transform="translate(44 42)">
        <text x="0" y="20" fill="#A9B2C2" font-size="13" font-weight="900" letter-spacing="2">MEMORY FIELD</text>
        <text x="0" y="58" fill="#FFFFFF" font-size="32" font-weight="900">stateful recall</text>
        <text x="0" y="91" fill="#C8D0DC" font-size="16" font-weight="650">Search brings candidates in.</text>
        <text x="0" y="117" fill="#C8D0DC" font-size="16" font-weight="650">Memory state decides what matters.</text>
      </g>

      <g transform="matrix(0.82 0 0 0.82 84 194)">
        <path d="M40 104C77 42 175 42 212 104" stroke="#FFFFFF" stroke-width="2.2" stroke-linecap="round" opacity="0.24"/>
        <path d="M40 104C77 166 175 166 212 104" stroke="#FFFFFF" stroke-width="2.2" stroke-linecap="round" opacity="0.24"/>
        <path d="M126 18C84 58 84 150 126 190" stroke="#FFFFFF" stroke-width="2.2" stroke-linecap="round" opacity="0.18"/>
        <path d="M126 18C168 58 168 150 126 190" stroke="#FFFFFF" stroke-width="2.2" stroke-linecap="round" opacity="0.18"/>
        <circle cx="126" cy="104" r="95" stroke="#FFFFFF" stroke-width="1.2" opacity="0.12"/>
        <circle cx="126" cy="104" r="62" stroke="#FFFFFF" stroke-width="1.2" opacity="0.18"/>
        <circle cx="126" cy="104" r="32" fill="#FFFFFF"/>

        <g fill="#FFFFFF">
          <circle cx="40" cy="104" r="8"/>
          <circle cx="212" cy="104" r="8"/>
          <circle cx="126" cy="18" r="7"/>
          <circle cx="77" cy="57" r="6"/>
          <circle cx="180" cy="151" r="6"/>
        </g>

        <g stroke="#FFFFFF" stroke-width="2" stroke-linecap="round" opacity="0.72">
          <path d="M48 104H94"/>
          <path d="M158 104H204"/>
          <path d="M126 26V72"/>
          <path d="M82 61L103 82"/>
          <path d="M174 147L150 123"/>
        </g>
      </g>

      <g transform="translate(36 354)" font-size="12" font-weight="900">
        <rect width="92" height="36" rx="18" fill="#FFFFFF"/>
        <text x="46" y="24" text-anchor="middle" fill="#050505">remember</text>

        <rect x="104" width="74" height="36" rx="18" fill="#151922" stroke="#596274" stroke-width="1.1"/>
        <text x="141" y="24" text-anchor="middle" fill="#FFFFFF">query</text>

        <rect x="190" width="74" height="36" rx="18" fill="#151922" stroke="#596274" stroke-width="1.1"/>
        <text x="227" y="24" text-anchor="middle" fill="#FFFFFF">forget</text>

        <rect x="276" width="76" height="36" rx="18" fill="#151922" stroke="#596274" stroke-width="1.1"/>
        <text x="314" y="24" text-anchor="middle" fill="#FFFFFF">explain</text>
      </g>
    </g>
  </g>
</svg>
