<svg width="1440" height="600" viewBox="0 0 1440 600" fill="none" xmlns="http://www.w3.org/2000/svg" role="img" aria-labelledby="title desc">
  <title id="title">CaspianG builds durable memory systems</title>
  <desc id="desc">A minimal black and white GitHub profile hero for WaveMind and adaptive memory infrastructure.</desc>

  <defs>
    <linearGradient id="panel" x1="846" y1="72" x2="1306" y2="526" gradientUnits="userSpaceOnUse">
      <stop stop-color="#17181C"/>
      <stop offset="1" stop-color="#090A0C"/>
    </linearGradient>
    <radialGradient id="glow" cx="0" cy="0" r="1" gradientUnits="userSpaceOnUse" gradientTransform="translate(1116 300) rotate(90) scale(238 238)">
      <stop stop-color="#FFFFFF" stop-opacity="0.16"/>
      <stop offset="0.6" stop-color="#FFFFFF" stop-opacity="0.045"/>
      <stop offset="1" stop-color="#FFFFFF" stop-opacity="0"/>
    </radialGradient>
  </defs>

  <rect width="1440" height="600" rx="40" fill="#050505"/>
  <rect x="1.5" y="1.5" width="1437" height="597" rx="38.5" stroke="#272A31" stroke-width="3"/>

  <g opacity="0.12">
    <path d="M76 96H1364M76 192H1364M76 288H1364M76 384H1364M76 480H1364" stroke="#FFFFFF" stroke-width="1"/>
    <path d="M174 72V528M326 72V528M478 72V528M630 72V528M782 72V528M934 72V528M1086 72V528M1238 72V528" stroke="#FFFFFF" stroke-width="1"/>
  </g>

  <g transform="translate(82 72)">
    <rect width="84" height="84" rx="25" fill="#FFFFFF"/>
    <path d="M42 18C28.745 18 18 28.745 18 42C18 55.255 28.745 66 42 66C55.255 66 66 55.255 66 42C66 28.745 55.255 18 42 18Z" fill="#050505"/>
    <path d="M29 45C37.4 34.5 47.6 34.5 56 45" stroke="#FFFFFF" stroke-width="7" stroke-linecap="round"/>
    <circle cx="33.5" cy="39" r="3" fill="#FFFFFF"/>
    <circle cx="50.5" cy="39" r="3" fill="#FFFFFF"/>
  </g>

  <g font-family="Inter, Segoe UI, Arial, sans-serif">
    <text x="82" y="214" fill="#FFFFFF" font-size="17" font-weight="800" letter-spacing="2.8">CASPIANG</text>
    <text x="82" y="304" fill="#FFFFFF" font-size="76" font-weight="850">Memory engines</text>
    <text x="82" y="388" fill="#FFFFFF" font-size="76" font-weight="850">for durable context.</text>
    <text x="86" y="440" fill="#D6D8DE" font-size="23" font-weight="600">software that remembers, adapts, explains, and stays inspectable</text>
  </g>

  <g transform="translate(82 492)" font-family="Inter, Segoe UI, Arial, sans-serif">
    <rect x="0" y="0" width="144" height="44" rx="22" fill="#FFFFFF"/>
    <text x="72" y="28" text-anchor="middle" fill="#050505" font-size="14" font-weight="850">WaveMind</text>

    <rect x="162" y="0" width="142" height="44" rx="22" fill="#111215" stroke="#5D6370" stroke-width="1.4"/>
    <text x="233" y="28" text-anchor="middle" fill="#FFFFFF" font-size="14" font-weight="800">local-first</text>

    <rect x="322" y="0" width="142" height="44" rx="22" fill="#111215" stroke="#5D6370" stroke-width="1.4"/>
    <text x="393" y="28" text-anchor="middle" fill="#FFFFFF" font-size="14" font-weight="800">benchmarked</text>

    <rect x="482" y="0" width="132" height="44" rx="22" fill="#111215" stroke="#5D6370" stroke-width="1.4"/>
    <text x="548" y="28" text-anchor="middle" fill="#FFFFFF" font-size="14" font-weight="800">open source</text>
  </g>

  <g transform="translate(840 72)">
    <rect width="520" height="456" rx="36" fill="url(#panel)" stroke="#424650" stroke-width="1.6"/>
    <rect width="520" height="456" rx="36" fill="url(#glow)"/>

    <g opacity="0.34">
      <circle cx="260" cy="228" r="152" stroke="#FFFFFF" stroke-width="1.2"/>
      <circle cx="260" cy="228" r="108" stroke="#FFFFFF" stroke-width="1.2"/>
      <circle cx="260" cy="228" r="64" stroke="#FFFFFF" stroke-width="1.2"/>
      <path d="M108 228H412M260 76V380" stroke="#FFFFFF" stroke-width="1.2"/>
      <path d="M152 120L368 336M368 120L152 336" stroke="#FFFFFF" stroke-width="1.2"/>
    </g>

    <g stroke="#FFFFFF" stroke-width="3.2" stroke-linecap="round">
      <path d="M168 155C199 181 226 207 250 222"/>
      <path d="M352 154C320 184 294 209 270 222"/>
      <path d="M170 300C202 271 228 247 250 234"/>
      <path d="M350 300C318 271 292 247 270 234"/>
    </g>

    <circle cx="260" cy="228" r="22" fill="#FFFFFF"/>
    <circle cx="160" cy="148" r="15" fill="#FFFFFF"/>
    <circle cx="360" cy="148" r="15" fill="#FFFFFF"/>
    <circle cx="160" cy="308" r="15" fill="#FFFFFF"/>
    <circle cx="360" cy="308" r="15" fill="#FFFFFF"/>

    <g font-family="Inter, Segoe UI, Arial, sans-serif">
      <rect x="58" y="50" width="126" height="46" rx="16" fill="#FFFFFF"/>
      <text x="121" y="79" text-anchor="middle" fill="#050505" font-size="14" font-weight="850">remember</text>

      <rect x="336" y="50" width="126" height="46" rx="16" fill="#202228" stroke="#5D6370" stroke-width="1.2"/>
      <text x="399" y="79" text-anchor="middle" fill="#FFFFFF" font-size="14" font-weight="850">retrieve</text>

      <rect x="58" y="360" width="126" height="46" rx="16" fill="#202228" stroke="#5D6370" stroke-width="1.2"/>
      <text x="121" y="389" text-anchor="middle" fill="#FFFFFF" font-size="14" font-weight="850">adapt</text>

      <rect x="336" y="360" width="126" height="46" rx="16" fill="#202228" stroke="#5D6370" stroke-width="1.2"/>
      <text x="399" y="389" text-anchor="middle" fill="#FFFFFF" font-size="14" font-weight="850">explain</text>

      <rect x="190" y="198" width="140" height="60" rx="22" fill="#FFFFFF"/>
      <text x="260" y="224" text-anchor="middle" fill="#050505" font-size="15" font-weight="900">memory</text>
      <text x="260" y="244" text-anchor="middle" fill="#3A3D44" font-size="12" font-weight="800">field</text>
    </g>
  </g>
</svg>
